<?xml version="1.0" standalone="no"?>
<!DOCTYPE svg PUBLIC "-//W3C//DTD SVG 1.1//EN" "http://www.w3.org/Graphics/SVG/1.1/DTD/svg11.dtd" >
<svg>
<metadata>
Created by FontForge 20090914 at Tue Aug 29 12:22:34 2017
 By www-data
TrueType font: Copyright &#194;&#169; 1991, 1994 ParaGraph. Technical realization by TeamAXis Corp. Hinted with AXisType ToolKit: Copyright &#194;&#169; 1992, 1994 by Dmitry Komissarov. Bauhaus is a registered trade mark of International Typeface Corporation.
</metadata>
<defs>
<font id="BauhausLightCTT" horiz-adv-x="556" >
  <font-face 
    font-family="BauhausLightCTT"
    font-weight="400"
    font-stretch="normal"
    units-per-em="1000"
    panose-1="0 0 0 0 0 0 0 0 0 0"
    ascent="800"
    descent="-200"
    x-height="473.999"
    cap-height="700"
    bbox="-66 -242 1072 900"
    underline-thickness="50"
    underline-position="-75"
    unicode-range="U+0020-U+2219"
  />
<missing-glyph horiz-adv-x="900" 
d="M56 0v900h788v-900h-788zM788 56v788h-676v-788h676z" />
    <glyph glyph-name=".notdef" horiz-adv-x="900" 
d="M56 0v900h788v-900h-788zM788 56v788h-676v-788h676z" />
    <glyph glyph-name="space" unicode=" " horiz-adv-x="233" 
 />
    <glyph glyph-name="exclam" unicode="!" horiz-adv-x="222" 
d="M125 138h-38v574h38v-574zM144 32c0 -10.667 -3.66699 -19.667 -11 -27s-16.333 -11 -27 -11s-19.667 3.66699 -27 11s-11 16.333 -11 27s3.66699 19.667 11 27s16.333 11 27 11s19.667 -3.66699 27 -11s11 -16.333 11 -27z" />
    <glyph glyph-name="quotedbl" unicode="&#x22;" horiz-adv-x="333" 
d="M236 474h-38v226h38v-226zM136 474h-38v226h38v-226z" />
    <glyph glyph-name="numbersign" unicode="#" horiz-adv-x="500" 
d="M469 391h-104l-19 -146h98v-36h-104l-29 -209h-37l28 209h-134l-29 -209h-38l29 209h-99v36h105l19 146h-99v37h104l28 204h38l-28 -204h134l29 204h38l-29 -204h99v-37zM327 391h-134l-19 -146h134z" />
    <glyph glyph-name="dollar" unicode="$" 
d="M509 252c0 -51.333 -18.001 -90.333 -54.001 -117c-31.333 -23.333 -73 -35 -125 -35h-9v-100h-40v100h-175v38h175v257c-65.333 22.667 -109 43 -131 61c-29.333 24.667 -44 61 -44 109c0 56.667 21.667 95.667 65 117c24.667 12 55.334 18 92.001 18h18v66h40v-66h150
v-38h-150v-233c64 -17.333 110.667 -39 140 -65c32 -28.667 48 -66 48 -112zM280.999 437l-0.000976562 224.999h-13c-34.667 0 -60.667 -4.33301 -78 -13c-29.333 -14.667 -44 -43 -44 -85c0 -35.333 11.333 -62.333 34 -81c16.667 -13.333 50.334 -28.666 101.001 -45.999
zM468.998 247.999c0 36 -13.333 65.001 -40 87.001c-20.667 17.333 -56.667 34.666 -108 51.999v-249h8c44.667 0 79.167 9.83301 103.5 29.5s36.5 46.5 36.5 80.5z" />
    <glyph glyph-name="percent" unicode="%" horiz-adv-x="889" 
d="M371 561c0 -41.333 -14.833 -76.5 -44.5 -105.5s-65.167 -43.5 -106.5 -43.5c-40.667 0 -76 14.667 -106 44s-45 64.333 -45 105c0 41.333 14.833 76.5 44.5 105.5s65.167 43.5 106.5 43.5c40.667 0 76 -14.667 106 -44s45 -64.333 45 -105zM791 139
c0 -41.333 -14.833 -76.5 -44.5 -105.5s-65.167 -43.5 -106.5 -43.5c-40.667 0 -76 14.667 -106 44s-45 64.333 -45 105c0 41.333 14.833 76.5 44.5 105.5s65.167 43.5 106.5 43.5c40.667 0 76 -14.667 106 -44s45 -64.333 45 -105zM672 700l-448 -700h-37l447 700h38z
M331 561c0 30 -10.667 56 -32 78s-47.666 33 -78.999 33s-57.666 -11 -78.999 -33s-32 -48 -32 -78s10.667 -56 32 -78s47.666 -33 78.999 -33s57.666 11 78.999 33s32 48 32 78zM751 139c0 30 -10.667 56 -32 78s-47.666 33 -78.999 33s-57.666 -11 -78.999 -33
s-32 -48 -32 -78s10.667 -56 32 -78s47.666 -33 78.999 -33s57.666 11 78.999 33s32 48 32 78z" />
    <glyph glyph-name="ampersand" unicode="&#x26;" horiz-adv-x="667" 
d="M655 0l-49 -0.00488281l-57 73c-23.333 -23.333 -50.333 -41.666 -81 -54.999c-42.667 -18.667 -92.667 -28 -150 -28c-98.667 0 -174.334 30.667 -227.001 92c-43.333 50.667 -65 110.334 -65 179.001c0 45.333 9.66699 87 29 125c24 47.333 62 86 114 116
c-18 20.667 -31.333 39.334 -40 56.001c-12 22.667 -18 44.334 -18 65.001c0 32 15.333 54 46 66c19.333 7.33301 47.333 11 84 11h259v-36h-259h-20c-23.333 0 -40.833 -2.5 -52.5 -7.5s-17.5 -16.5 -17.5 -34.5c0 -16.667 7.33301 -36.334 22 -59.001
c10.667 -16.667 25.667 -36 45 -58l331 -372c14.667 22 24.334 42.5 29.001 61.5s7 41.167 7 66.5c0 34.667 -6.33301 66.667 -19 96c-14.667 34.667 -38.667 65.334 -72 92.001l24 28c40 -30.667 69 -67.667 87 -111c13.333 -32.667 20 -67.667 20 -105
c0 -45.333 -11.667 -90.666 -35 -135.999l-16 -25zM523 99.9951l-328.001 375.001c-48 -27.333 -82.667 -62 -104 -104c-16.667 -32.667 -25 -69.334 -25 -110.001c0 -66 22 -120.667 66 -164c46.667 -46 109.334 -69 188.001 -69c48 0 91 8 129 24c28 12 52.667 28 74 48z
" />
    <glyph glyph-name="quotesingle" unicode="'" horiz-adv-x="222" 
d="M130 474h-38v226h38v-226z" />
    <glyph glyph-name="parenleft" unicode="(" horiz-adv-x="381" 
d="M352 -163l-20.002 -23.0029c-71.333 57.333 -125.166 125 -161.499 203s-54.5 160 -54.5 246c0 87.333 17.833 169.333 53.5 246s89.834 144.334 162.501 203.001l20 -23c-80 -73.333 -135.667 -153.666 -167 -240.999c-20.667 -57.333 -31 -119 -31 -185
c0 -40 3.66699 -77.667 11 -113c10.667 -51.333 29 -100.666 55 -147.999c32.667 -59.333 76.667 -114.333 132 -165z" />
    <glyph glyph-name="parenright" unicode=")" horiz-adv-x="381" 
d="M352 263c0 -87.333 -17.3311 -168.33 -51.998 -242.997c-36.667 -78.667 -91.334 -147.334 -164.001 -206.001l-20 23c80 73.333 135.667 153.666 167 240.999c20.667 57.333 31 119 31 185c0 40 -3.66699 77.667 -11 113c-10.667 51.333 -29 100.666 -55 147.999
c-32.667 59.333 -76.667 114.333 -132 165l20 23c71.333 -57.333 125.666 -126 162.999 -206c35.333 -76 53 -157 53 -243z" />
    <glyph glyph-name="asterisk" unicode="*" horiz-adv-x="500" 
d="M416 444l-18 -25l-133 79v-158h-30v158l-133 -79l-18 25l138 82l-138 82l18 24l133 -80v148h30v-148l133 80l18 -24l-138 -82z" />
    <glyph glyph-name="plus" unicode="+" horiz-adv-x="576" 
d="M512 206h-204v-206h-38v206h-206v38h206v206h38v-206h204v-38z" />
    <glyph glyph-name="comma" unicode="," horiz-adv-x="318" 
d="M168 72l-50 -154h-40l41 154h49z" />
    <glyph glyph-name="hyphen" unicode="-" horiz-adv-x="334" 
d="M262 218h-190v38h190v-38z" />
    <glyph glyph-name="period" unicode="." horiz-adv-x="278" 
d="M172 32c0 -10.667 -3.66699 -19.667 -11 -27s-16.333 -11 -27 -11s-19.667 3.66699 -27 11s-11 16.333 -11 27s3.66699 19.667 11 27s16.333 11 27 11s19.667 -3.66699 27 -11s11 -16.333 11 -27z" />
    <glyph glyph-name="slash" unicode="/" horiz-adv-x="318" 
d="M345 712l-371 -724h-40l371 724h40z" />
    <glyph glyph-name="zero" unicode="0" 
d="M508 238c0 -75.333 -20.167 -135.834 -60.5 -181.501s-96.833 -68.5 -169.5 -68.5c-72 0 -128.333 23.333 -169 70s-61 107.334 -61 182.001v220c0 75.333 20.167 135.833 60.5 181.5s96.833 68.5 169.5 68.5c72 0 128.333 -23 169 -69s61 -106.333 61 -181v-222z
M464 227.999v242.003c0 59.333 -16.333 107.166 -49 143.499s-78.334 54.5 -137.001 54.5c-57.333 0 -102.666 -18.333 -135.999 -55s-50 -84.334 -50 -143.001v-242c0 -46.667 11 -87.334 33 -122.001c32 -50.667 83 -76 153 -76c69.333 0 120 25 152 75
c22.667 35.333 34 76.333 34 123z" />
    <glyph glyph-name="one" unicode="1" horiz-adv-x="565" 
d="M301 0h-38v664h-117l9 36h146v-700z" />
    <glyph glyph-name="two" unicode="2" 
d="M502 0l-388 -0.000976562c-22 0 -38.167 3 -48.5 9s-15.5 17.667 -15.5 35c0 15.333 5.66699 29.333 17 42c8 8.66699 26 24.334 54 47.001l254 203c20 16 38 37.667 54 65c19.333 33.333 29 66.666 29 99.999c0 48.667 -16 88.667 -48 120
c-34 33.333 -79.333 50 -136 50c-50.667 0 -92.667 -14 -126 -42c-37.333 -31.333 -56 -74.333 -56 -129c0 -52.667 18.333 -95 55 -127c34.667 -30 78 -45 130 -45l-56 -31c-51.333 9.33301 -93 32 -125 68s-48 81 -48 135c0 59.333 20.333 108.333 61 147
c44 42 102.667 63 176 63c66.667 0 120.334 -21.333 161.001 -64c37.333 -39.333 56 -88.333 56 -147c0 -44 -14 -86.667 -42 -128c-18.667 -27.333 -41.334 -51.666 -68.001 -72.999l-248 -198c-33.333 -26.667 -50 -43.667 -50 -51c0 -6 4 -9 12 -9h396v-40z" />
    <glyph glyph-name="three" unicode="3" horiz-adv-x="557" 
d="M489 205c0 -58 -18.001 -105.333 -54.001 -142c-41.333 -42 -100.333 -63 -177 -63h-200v38h200c67.333 0 117 18.667 149 56c24.667 28.667 37 66 37 112c0 40 -11 74.333 -33 103c-31.333 40.667 -80.666 61 -147.999 61h-126v27l237 228c8 8 13.333 14 16 18
s4 7.66699 4 11c0 6.66699 -7.33301 10 -22 10h-309v36h310c20 0 33.333 -1 40 -3c16 -4.66699 24 -15 24 -31c0 -10 -2 -19.667 -6 -29s-10.667 -18.333 -20 -27l-212 -200h64c78 0 137 -22.333 177 -67c32.667 -36.667 49 -82.667 49 -138z" />
    <glyph glyph-name="four" unicode="4" horiz-adv-x="557" 
d="M521 198l-119.001 0.000976562v-198h-38v198h-280c-22.667 0 -38.667 3.5 -48 10.5s-14 17.5 -14 31.5c0 9.33301 2.33301 19 7 29c0.666992 1.33301 11.334 18.666 32.001 51.999l239 381h45l-274 -439c-3.33301 -5.33301 -5 -10.333 -5 -15
c0 -9.33301 6.33301 -14 19 -14h279v418l36 50l2 -468h119v-36z" />
    <glyph glyph-name="five" unicode="5" 
d="M484 201c0 -64.667 -22.999 -115 -68.999 -151c-42.667 -33.333 -98.334 -50 -167.001 -50h-182v40h182c60 0 107 14.667 141 44s51 70 51 122c0 68 -25 115 -75 141c-32 16.667 -75 25 -129 25h-148v328h347v-36h-307v-252h107c86 0 149 -18.167 189 -54.5
s60 -88.5 60 -156.5z" />
    <glyph glyph-name="six" unicode="6" 
d="M520 233c0 -70 -23.668 -128.003 -71.001 -174.003s-104.333 -69 -171 -69c-66 0 -122 21.333 -168 64c-49.333 45.333 -74 104.333 -74 177c0 44 10 86.333 30 127c7.33301 15.333 28 48.333 62 99l161 243h50l-182 -271c-22 -33.333 -37.333 -57.666 -46 -72.999
c-20.667 -37.333 -31 -76.666 -31 -117.999c0 -62 18.833 -112.167 56.5 -150.5s84.834 -57.5 141.501 -57.5c56 0 103 19 141 57s57 86.667 57 146c0 58.667 -18.833 107.167 -56.5 145.5s-84.834 57.5 -141.501 57.5c-29.333 0 -57.666 -4.66699 -84.999 -14l29 46
c21.333 3.33301 40 5 56 5c74.667 0 134.667 -24.667 180 -74c41.333 -45.333 62 -100.666 62 -165.999z" />
    <glyph glyph-name="seven" unicode="7" 
d="M519 655c0 -10 -2 -21.332 -6 -33.999c-1.33301 -4.66699 -6 -16 -14 -34l-260 -587h-46l271 610c4 7.33301 6.66699 12.666 8 15.999c4.66699 9.33301 7 17 7 23s-2.16699 10 -6.5 12s-8.83301 3 -13.5 3h-422v36h418c19.333 0 33 -1.66699 41 -5
c15.333 -6.66699 23 -20 23 -40z" />
    <glyph glyph-name="eight" unicode="8" 
d="M510 208c0 -62 -21.167 -113.833 -63.5 -155.5s-98.5 -62.5 -168.5 -62.5s-126.167 20.833 -168.5 62.5s-63.5 93.5 -63.5 155.5c0 48.667 14.5 90.834 43.5 126.501s67.5 58.834 115.5 69.501c-31.333 10 -56.333 26 -75 48c-22 26 -33 58 -33 96c0 48 16.333 87 49 117
s76.667 45 132 45s99.333 -15 132 -45s49 -69 49 -117c0 -41.333 -13.667 -75.666 -41 -102.999c-18.667 -18.667 -41 -32.334 -67 -41.001c48 -10.667 86.5 -33.834 115.5 -69.501s43.5 -77.834 43.5 -126.501zM413 548c0 40 -11.999 70.999 -35.999 92.999s-57 33 -99 33
c-44 0 -78.333 -13 -103 -39c-21.333 -22.667 -32 -51.667 -32 -87s12.167 -66.166 36.5 -92.499s57.166 -39.5 98.499 -39.5c38 0 70 12 96 36s39 56 39 96zM464.001 209.999c0 51.333 -18.499 92.166 -55.499 122.499s-80.5 45.5 -130.5 45.5s-92.667 -14.333 -128 -43
c-38.667 -31.333 -58 -73 -58 -125c0 -48 15.667 -89.333 47 -124c35.333 -38.667 81.666 -58 138.999 -58s103.333 19 138 57c32 34.667 48 76.334 48 125.001z" />
    <glyph glyph-name="nine" unicode="9" horiz-adv-x="558" 
d="M522 467c0 -48.667 -13.999 -97.335 -41.999 -146.002c-2.66699 -4.66699 -19.667 -30.667 -51 -78l-161 -243h-50l182 271c25.333 38 42 64.667 50 80c19.333 38 29 75 29 111c0 54.667 -17 102 -51 142c-37.333 44 -87 66 -149 66c-56 0 -103.167 -18.833 -141.5 -56.5
s-57.5 -86.5 -57.5 -146.5c0 -59.333 19 -108 57 -146s85.333 -57 142 -57c15.333 0 29.666 1 42.999 3s27.333 5.66699 42 11l-29 -46c-20 -5.33301 -38.667 -8 -56 -8c-66 0 -122.333 22.333 -169 67c-49.333 46.667 -74 105.334 -74 176.001
c0 62.667 20.667 117.334 62 164.001c46.667 52.667 107 79 181 79c72.667 0 132 -24.667 178 -74c43.333 -46.667 65 -103 65 -169z" />
    <glyph glyph-name="colon" unicode=":" horiz-adv-x="278" 
d="M172 350c0 -10.667 -3.66699 -19.667 -11 -27s-16.333 -11 -27 -11s-19.667 3.66699 -27 11s-11 16.333 -11 27s3.66699 19.667 11 27s16.333 11 27 11s19.667 -3.66699 27 -11s11 -16.333 11 -27zM172 32c0 -10.667 -3.66699 -19.667 -11 -27s-16.333 -11 -27 -11
s-19.667 3.66699 -27 11s-11 16.333 -11 27s3.66699 19.667 11 27s16.333 11 27 11s19.667 -3.66699 27 -11s11 -16.333 11 -27z" />
    <glyph glyph-name="semicolon" unicode=";" horiz-adv-x="296" 
d="M172 350c0 -10.667 -3.66699 -19.667 -11 -27s-16.333 -11 -27 -11s-19.667 3.66699 -27 11s-11 16.333 -11 27s3.66699 19.667 11 27s16.333 11 27 11s19.667 -3.66699 27 -11s11 -16.333 11 -27zM168 72l-50 -154h-40l41 154h49z" />
    <glyph glyph-name="less" unicode="&#x3c;" horiz-adv-x="576" 
d="M512 -7l-448 208v48l448 208v-42l-410 -190l410 -190v-42z" />
    <glyph glyph-name="equal" unicode="=" horiz-adv-x="576" 
d="M512 294h-448v38h448v-38zM512 119h-448v38h448v-38z" />
    <glyph glyph-name="greater" unicode="&#x3e;" horiz-adv-x="576" 
d="M512 201l-448 -208v42l410 190l-410 190v42l448 -208v-48z" />
    <glyph glyph-name="question" unicode="?" horiz-adv-x="444" 
d="M422 512c0 -62.667 -18.668 -112.33 -56.001 -148.997s-84.666 -55 -141.999 -55v-180h-38v216h25c54 0 96 15.667 126 47s45 71.666 45 120.999c0 51.333 -17.333 91.666 -52 120.999c-30.667 26 -66.667 39 -108 39c-46 0 -84.167 -15.167 -114.5 -45.5
s-45.5 -68.5 -45.5 -114.5h-40c0 57.333 19 104.666 57 141.999s85.667 56 143 56c52 0 96.667 -15.667 134 -47c44 -36.667 66 -87 66 -151zM242.999 32.0039c0 -10.667 -3.66699 -19.667 -11 -27s-16.333 -11 -27 -11s-19.667 3.66699 -27 11s-11 16.333 -11 27
s3.66699 19.667 11 27s16.333 11 27 11s19.667 -3.66699 27 -11s11 -16.333 11 -27z" />
    <glyph glyph-name="at" unicode="@" horiz-adv-x="774" 
d="M747 420c0 -49.333 -9.50293 -92.333 -28.5029 -129s-42.833 -63.667 -71.5 -81c-8.66699 -5.33301 -18.167 -9.5 -28.5 -12.5s-19.166 -4.5 -26.499 -4.5c-10.667 0 -20 1.83301 -28 5.5s-15 8.16699 -21 13.5c-9.33301 9.33301 -15.333 19.5 -18 30.5
s-4 24.167 -4 39.5v60c0 36.667 -10.833 66.5 -32.5 89.5s-50.167 34.5 -85.5 34.5c-39.333 0 -69.666 -13 -90.999 -39c-18 -22 -27 -48 -27 -78c0 -30.667 11.333 -58 34 -82s52 -36 88 -36c19.333 0 37 5 53 15s29 23.333 39 40v-47
c-8 -13.333 -20.833 -24.333 -38.5 -33s-37.834 -13 -60.501 -13c-43.333 0 -79.666 15 -108.999 45s-44 67 -44 111s14.5 80.833 43.5 110.5s67.5 44.5 115.5 44.5c44 0 80.5 -14.5 109.5 -43.5s43.5 -66.833 43.5 -113.5v-62c0 -18 1.33301 -30 4 -36
c5.33301 -12 16.666 -18 33.999 -18c26 0 51.167 18.333 75.5 55s36.5 79.667 36.5 129c0 68.667 -24 127.334 -72 176.001c-53.333 54 -125 81 -215 81c-93.333 0 -171 -31.333 -233 -94s-93 -139.667 -93 -231c0 -93.333 35 -171.333 105 -234
c63.333 -56.667 135 -85 215 -85c36.667 0 74.834 6.5 114.501 19.5s76.167 32.167 109.5 57.5v-50c-70.667 -43.333 -144 -65 -220 -65c-95.333 0 -177.666 30.667 -246.999 92c-76.667 67.333 -115 155 -115 263c0 105.333 35.167 192.5 105.5 261.5
s157.5 103.5 261.5 103.5c100 0 180 -30 240 -90c54.667 -54.667 82 -121.334 82 -200.001z" />
    <glyph glyph-name="A" unicode="A" horiz-adv-x="610" 
d="M546 0l-42 0.000976562v341h-358v38h358v39c0 72.667 -7.33301 124 -22 154s-38 54.667 -70 74c-15.333 8.66699 -32 15.167 -50 19.5s-37 6.5 -57 6.5c-42 0 -77.667 -8.66699 -107 -26c-40 -24 -66.333 -57 -79 -99c-8.66699 -28.667 -13 -71.667 -13 -129v-418h-42
v418c0 60.667 4.33301 106 13 136c15.333 53.333 47.666 94.666 96.999 123.999c17.333 10 37.833 17.833 61.5 23.5s46.834 8.5 69.501 8.5c24.667 0 47.667 -2.5 69 -7.5s42 -13.167 62 -24.5c48 -28.667 80 -69.667 96 -123c9.33301 -31.333 14 -77 14 -137v-418z" />
    <glyph glyph-name="B" unicode="B" 
d="M522 188c0 -31.333 -6.33301 -60.001 -19 -86.001c-20.667 -42 -52.667 -71 -96 -87c-26.667 -10 -58.334 -15 -95.001 -15h-166v38h142c37.333 0 67 3.33301 89 10c35.333 10.667 62 30.667 80 60c14 22.667 21 50 21 82c0 16 -1.83301 31.333 -5.5 46
s-9.16699 28.334 -16.5 41.001c-18 29.333 -42.667 50 -74 62c-21.333 8 -47.333 12 -78 12h-158v38h102c36.667 0 65.667 2.66699 87 8c36.667 9.33301 64.667 27 84 53c8.66699 12 15 25.667 19 41s6 31 6 47c0 55.333 -25.667 94.666 -77 117.999
c-10.667 5.33301 -23.5 9.33301 -38.5 12s-29.167 4 -42.5 4c-18 0 -35.167 -1.66699 -51.5 -5s-31.833 -9.33301 -46.5 -18c-33.333 -19.333 -56.333 -46.666 -69 -81.999c-8.66699 -24 -13 -55 -13 -93v-474h-42v474c0 42 4.66699 76.667 14 104
c15.333 44 43.333 78 84 102c16.667 10 36 17.5 58 22.5s44.333 7.5 67 7.5c21.333 0 40.5 -1.83301 57.5 -5.5s34.167 -9.83398 51.5 -18.501c26.667 -14 47.667 -31.667 63 -53c19.333 -26.667 29 -58.334 29 -95.001c0 -25.333 -4.5 -49.5 -13.5 -72.5
s-21.667 -42 -38 -57s-34.833 -26.167 -55.5 -33.5c18.667 -3.33301 36.334 -9.66602 53.001 -18.999c26.667 -15.333 48 -37.666 64 -66.999c8 -14.667 14 -31 18 -49s6 -35.333 6 -52z" />
    <glyph glyph-name="C" unicode="C" horiz-adv-x="502" 
d="M476 662l-73.001 0.00292969c-95.333 0 -172.333 -29.333 -231 -88s-88 -133.334 -88 -224.001c0 -96 32.333 -173 97 -231c60 -54 134 -81 222 -81h72v-38h-72c-103.333 0 -189 31.333 -257 94c-70.667 65.333 -106 150.666 -106 255.999
c0 91.333 28.333 169.666 85 234.999c66.667 76.667 159.334 115 278.001 115h73v-38z" />
    <glyph glyph-name="D" unicode="D" horiz-adv-x="612" 
d="M572 350c0 -63.333 -15.832 -122.169 -47.499 -176.502s-73.834 -96.166 -126.501 -125.499c-56.667 -32 -121.667 -48 -195 -48h-62v38h63c74 0 138 19 192 57c36.667 26 66.667 59 90 99c28 47.333 42 99.333 42 156s-14 108.667 -42 156c-23.333 40 -53 72.667 -89 98
c-54.667 38.667 -120 58 -196 58h-95v-662h-42v700h136c56.667 0 107 -8.33301 151 -25c74 -28 132 -78 174 -150c31.333 -53.333 47 -111.666 47 -174.999z" />
    <glyph glyph-name="E" unicode="E" horiz-adv-x="494" 
d="M468 0l-64.998 -0.00195312c-116 0 -207.333 36.667 -274 110c-59.333 65.333 -89 145.333 -89 240s29.333 174.334 88 239.001c67.333 74 159.666 111 276.999 111h63v-38h-63c-90.667 0 -166.834 -26.833 -228.501 -80.5s-92.5 -121.167 -92.5 -202.5h384v-38h-384
c0 -89.333 30.167 -162.166 90.5 -218.499s137.833 -84.5 232.5 -84.5h61v-38z" />
    <glyph glyph-name="F" unicode="F" horiz-adv-x="444" 
d="M396 331l-290.001 0.000976562v-331h-42v468c0 36.667 1.66699 65 5 85c6 34.667 17.5 62.667 34.5 84s38.333 37.166 64 47.499s64.834 15.5 117.501 15.5h111v-38h-125c-30.667 0 -54 -2.33301 -70 -7c-26 -7.33301 -47.333 -22 -64 -44
c-14 -17.333 -22.667 -37.5 -26 -60.5s-5 -50.833 -5 -83.5v-98h290v-38z" />
    <glyph glyph-name="G" unicode="G" horiz-adv-x="771" 
d="M737 335c0 -84.667 -29.3311 -160.999 -87.998 -228.999c-66.667 -77.333 -153.334 -116 -260.001 -116c-98.667 0 -182.5 35.167 -251.5 105.5s-103.5 155.166 -103.5 254.499c0 100 34.333 185 103 255s152.667 105 252 105c67.333 0 129 -15.333 185 -46
c34 -18.667 63 -41 87 -67l-29 -30c-34.667 42.667 -79.334 72.334 -134.001 89.001c-34.667 10.667 -71 16 -109 16c-88 0 -161.833 -31.5 -221.5 -94.5s-89.5 -138.833 -89.5 -227.5c0 -88 30 -163.667 90 -227s133.667 -95 221 -95c85.333 0 157.333 29.667 216 89
s88 131.666 88 216.999h-304v38h348v-37z" />
    <glyph glyph-name="H" unicode="H" horiz-adv-x="599" 
d="M535 0h-42v347h-387v-347h-42v700h42v-315h387v315h42v-700z" />
    <glyph glyph-name="I" unicode="I" horiz-adv-x="170" 
d="M106 0h-42v700h42v-700z" />
    <glyph glyph-name="J" unicode="J" horiz-adv-x="327" 
d="M263 241c0 -71.333 -9.33398 -123.667 -28.001 -157c-31.333 -56 -92.666 -84 -183.999 -84h-66v38h66c77.333 0 128 25 152 75c12 24.667 18 67 18 127v460h42v-459z" />
    <glyph glyph-name="K" unicode="K" 
d="M526 700l-99.999 -217.999c-15.333 -33.333 -31.666 -58.333 -48.999 -75c-14.667 -14 -31.334 -23.667 -50.001 -29c42.667 0 79.667 -13.333 111 -40c49.333 -42 74 -110.333 74 -205v-88c0 -8 0.833008 -16.167 2.5 -24.5s3.5 -15.166 5.5 -20.499h-43
c-2 10.667 -3.66699 20.667 -5 30s-2 16.666 -2 21.999v79c0 88 -23 148.667 -69 182c-31.333 22.667 -77 34 -137 34h-158v-347h-42v700h42v-315h112c47.333 0 82.666 9 105.999 27c28 21.333 57.333 66.666 88 135.999l67 152h47z" />
    <glyph glyph-name="L" unicode="L" horiz-adv-x="376" 
d="M391 0h-115.001c-87.333 0 -147.666 27.667 -180.999 83c-20.667 34 -31 79 -31 135v482h42v-462c0 -58.667 7.66699 -102 23 -130c25.333 -46.667 74.333 -70 147 -70h115v-38z" />
    <glyph glyph-name="M" unicode="M" horiz-adv-x="868" 
d="M804 0h-41.999l-87 639l-2 14c-2.66699 10 -6.66699 15 -12 15c-4 0 -7.33301 -2 -10 -6s-5.66699 -11.667 -9 -23l-167 -570c-8 -27.333 -14.333 -45 -19 -53c-10 -17.333 -23.333 -26 -40 -26c-18.667 0 -33.334 11.667 -44.001 35c-3.33301 8 -8.33301 22.667 -15 44
l-168 570c-2 8.66699 -4.33301 15.667 -7 21s-6.33398 8 -11.001 8c-3.33301 0 -6.16602 -3 -8.49902 -9s-4.16602 -12.667 -5.49902 -20l-87 -639h-42l87 636c3.33301 23.333 7 39 11 47c9.33301 18 24.666 27 45.999 27c18 0 31.667 -8 41 -24
c4 -7.33301 11.333 -28 22 -62l168 -573c1.33301 -5.33301 2.83301 -10.5 4.5 -15.5s4.5 -7.5 8.5 -7.5c3.33301 0 6.16602 3.16699 8.49902 9.5s3.83301 10.833 4.5 13.5l168 573l15 49c10 24.667 26 37 48 37c16.667 0 29.334 -5 38.001 -15s15 -29.667 19 -59z" />
    <glyph glyph-name="N" unicode="N" horiz-adv-x="603" 
d="M539 50c0 -20 -5 -34.999 -15 -44.999s-22.333 -15 -37 -15c-13.333 0 -24.5 3 -33.5 9s-19.167 21 -30.5 45l-276 585l-13 25.5c-4.66699 9 -10 13.5 -16 13.5l-5 -1c-4.66699 -2 -7 -7.66699 -7 -17v-650h-42v651c0 19.333 4.66699 34 14 44s23.333 15 42 15
c20 0 35 -7.66699 45 -23c2.66699 -4 7.66699 -14 15 -30l276 -586c4 -8.66699 8.33301 -17.334 13 -26.001s10 -13 16 -13c8 0 12 6 12 18v650h42v-650z" />
    <glyph glyph-name="O" unicode="O" horiz-adv-x="776" 
d="M742 350c0 -98 -34.833 -182.502 -104.5 -253.502s-153.167 -106.5 -250.5 -106.5c-98 0 -181.333 35.333 -250 106s-103 155.334 -103 254.001s34.333 183.334 103 254.001s152 106 250 106c97.333 0 180.833 -35.5 250.5 -106.5s104.5 -155.5 104.5 -253.5z
M698 349.998c0 87.333 -29.667 162.333 -89 225c-61.333 64.667 -135.333 97 -222 97s-159.834 -31.833 -219.501 -95.5s-89.5 -139.167 -89.5 -226.5s29.833 -162.833 89.5 -226.5s132.834 -95.5 219.501 -95.5s160.167 31.833 220.5 95.5s90.5 139.167 90.5 226.5z" />
    <glyph glyph-name="P" unicode="P" horiz-adv-x="530" 
d="M496 495c0 -61.333 -17.334 -111 -52.001 -149c-39.333 -42.667 -96 -64 -170 -64h-131v38h131c54.667 0 98 14.333 130 43s48 71.334 48 128.001c0 57.333 -17.333 102.666 -52 135.999c-31.333 30 -71.666 45 -120.999 45c-48 0 -86.667 -13.667 -116 -41
c-38 -35.333 -57 -90 -57 -164v-467h-42v468c0 88 24 152.667 72 194c37.333 32 85.333 48 144 48c67.333 0 121 -22 161 -66c36.667 -40 55 -89.667 55 -149z" />
    <glyph glyph-name="Q" unicode="Q" horiz-adv-x="780" 
d="M746 348c0 -83.333 -26.333 -158.668 -79 -226.001c-60 -76 -140.333 -120.667 -241 -134v-142h-42v344h42v-164c88 13.333 157.667 54 209 122c44.667 59.333 67 126 67 200c0 88.667 -29.667 164.334 -89 227.001c-61.333 64.667 -136 97 -224 97
c-87.333 0 -161 -32 -221 -96s-90 -140 -90 -228c0 -71.333 21.333 -136.333 64 -195c49.333 -67.333 116.666 -109 201.999 -125v-38c-95.333 14 -172 57.333 -230 130c-53.333 67.333 -80 143.333 -80 228c0 99.333 34.5 184.5 103.5 255.5s152.833 106.5 251.5 106.5
s182.834 -35.5 252.501 -106.5s104.5 -156.167 104.5 -255.5z" />
    <glyph glyph-name="R" unicode="R" horiz-adv-x="562" 
d="M506 0l-43.001 0.000976562c-2 10.667 -3.66699 20.667 -5 30s-2 16.666 -2 21.999v117c0 44.667 -8 79 -24 103c-26 39.333 -73.333 59 -142 59h-144v38h114c53.333 0 96 12 128 36c36 27.333 54 66.333 54 117c0 46 -15.833 82.5 -47.5 109.5s-72.5 40.5 -122.5 40.5
c-54.667 0 -96 -17.333 -124 -52s-42 -81.334 -42 -140.001v-480h-42v480c0 71.333 18.5 127.5 55.5 168.5s90.5 61.5 160.5 61.5c64 0 114.333 -17.333 151 -52s55 -78.334 55 -131.001c0 -41.333 -9.66699 -77.166 -29 -107.499s-48 -51.833 -86 -64.5
c56.667 -10 94.334 -40 113.001 -90c9.33301 -25.333 14 -64 14 -116v-104c0 -8 0.833008 -16.167 2.5 -24.5s3.5 -15.166 5.5 -20.499z" />
    <glyph glyph-name="S" unicode="S" horiz-adv-x="558" 
d="M514 177c0 -20.667 -2.16406 -39.333 -6.49707 -56s-11.833 -32.334 -22.5 -47.001c-25.333 -35.333 -61.666 -57.666 -108.999 -66.999c-23.333 -4.66699 -68.333 -7 -135 -7h-197v38h197h28c42.667 0 76 3 100 9c35.333 8.66699 61.666 25 78.999 49
c6.66699 9.33301 12 21 16 35s6 27.333 6 40c0 36.667 -10.667 67.334 -32 92.001c-12.667 14 -30.334 26.667 -53.001 38c-28 14 -66.667 27.667 -116 41c-54 15.333 -92.667 28.666 -116 39.999c-46 22.667 -77.667 52 -95 88
c-4.66699 11.333 -8.16699 22.666 -10.5 33.999s-3.5 24.333 -3.5 39c0 34.667 9.66699 65.334 29 92.001c16.667 22 37.5 38.333 62.5 49s66.5 16 124.5 16h214v-38h-214c-32 0 -56.5 -1 -73.5 -3s-33.833 -8.66699 -50.5 -20c-13.333 -8.66699 -24 -19.667 -32 -33
c-10.667 -17.333 -16 -38.333 -16 -63c0 -14 1.66699 -27.5 5 -40.5s9 -25.167 17 -36.5c14 -20 38 -37.333 72 -52c23.333 -10 58.166 -21.167 104.499 -33.5s81.166 -23.5 104.499 -33.5c38 -16 66.333 -35.333 85 -58c11.333 -14 20.5 -31 27.5 -51
s10.5 -40.333 10.5 -61z" />
    <glyph glyph-name="T" unicode="T" horiz-adv-x="444" 
d="M442 662h-199v-662h-42v662h-199v38h440v-38z" />
    <glyph glyph-name="U" unicode="U" horiz-adv-x="610" 
d="M546 231c0 -74.667 -21.833 -133.5 -65.5 -176.5s-102.167 -64.5 -175.5 -64.5s-131.833 21.5 -175.5 64.5s-65.5 101.833 -65.5 176.5v469h42v-469c0 -62 16 -110.667 48 -146c34.667 -38 85 -57 151 -57c65.333 0 114.833 18.5 148.5 55.5s50.5 86.167 50.5 147.5v469
h42v-469z" />
    <glyph glyph-name="V" unicode="V" horiz-adv-x="564" 
d="M550 700l-218.998 -657c-6.66699 -20 -11.334 -31.667 -14.001 -35c-8.66699 -12 -22.667 -18 -42 -18c-16 0 -27.833 3.5 -35.5 10.5s-14.834 21.167 -21.501 42.5l-204 657h41l195 -626c5.33301 -17.333 9.83301 -28.666 13.5 -33.999s7.5 -8 11.5 -8
c6 0 10.167 2.16699 12.5 6.5s6.5 16.166 12.5 35.499l208 626h42z" />
    <glyph glyph-name="W" unicode="W" horiz-adv-x="944" 
d="M880 234c0 -52.667 -4.33496 -92 -13.002 -118c-14 -42 -42.333 -75 -85 -99c-33.333 -18.667 -70 -28 -110 -28c-41.333 0 -78.666 10 -111.999 30c-37.333 22.667 -66.666 55.667 -87.999 99c-17.333 -36.667 -40.666 -65.667 -69.999 -87
c-36.667 -27.333 -80.334 -41 -131.001 -41c-41.333 0 -77.666 9 -108.999 27c-42 23.333 -70 56 -84 98c-9.33301 27.333 -14 67 -14 119v466h42v-466c0 -39.333 1.5 -66.666 4.5 -81.999s9.5 -31.333 19.5 -48c13.333 -22 32.833 -40.167 58.5 -54.5
s54.167 -21.5 85.5 -21.5c53.333 0 96.166 19.167 128.499 57.5s48.5 87.833 48.5 148.5v466h42v-466c0 -68 18 -120.333 54 -157c32 -32.667 73 -49 123 -49c32 0 60.167 6.66699 84.5 20s43.833 31.666 58.5 54.999c11.333 18 18.333 36.667 21 56s4 41 4 65v476h42v-466z
" />
    <glyph glyph-name="X" unicode="X" horiz-adv-x="608" 
d="M592 0c-68 0 -128.001 22.333 -180.001 67s-88 102.334 -108 173.001c-20 -70 -56.167 -127.5 -108.5 -172.5s-112.166 -67.5 -179.499 -67.5v42c72 0 134.5 30.167 187.5 90.5s79.5 133.166 79.5 218.499s-26.667 158.333 -80 219s-115.666 91 -186.999 91v42
c68 0 128 -22.333 180 -67s88 -102.334 108 -173.001c20 70 56.167 127.5 108.5 172.5s112.166 67.5 179.499 67.5v-42c-72 0 -134.5 -30.167 -187.5 -90.5s-79.5 -133.5 -79.5 -219.5c0 -85.333 26.5 -158.166 79.5 -218.499s115.5 -90.5 187.5 -90.5v-42z" />
    <glyph glyph-name="Y" unicode="Y" 
d="M492 509c0 -63.333 -18.5 -115.333 -55.5 -156s-82.833 -61 -137.5 -61v-292h-42v292c-54.667 0 -100.5 20.167 -137.5 60.5s-55.5 92.5 -55.5 156.5v191h42v-194c0 -53.333 16 -96 48 -128s73.333 -48 124 -48s92 16 124 48s48 74.667 48 128v194h42v-191z" />
    <glyph glyph-name="Z" unicode="Z" horiz-adv-x="507" 
d="M479 0l-380.999 0.00390625c-22.667 0 -38.334 1.66699 -47.001 5c-15.333 6 -23 18.333 -23 37c0 10 1.66699 20.167 5 30.5s11.333 24.166 24 41.499l364 513c2 3.33301 4.16699 6.66602 6.5 9.99902s3.16602 7.33301 2.49902 12c-0.666992 2 -1 3.33301 -1 4
c-3.33301 6 -9 9 -17 9h-345v38h332c24 0 39.667 -1 47 -3c17.333 -4.66699 26 -15.667 26 -33c0 -14 -1.66699 -26 -5 -36s-11.333 -24 -24 -42l-364 -513c-2 -2.66699 -4.16699 -5.83398 -6.5 -9.50098s-3.16602 -7.83398 -2.49902 -12.501c0.666992 -2 1 -3.33301 1 -4
c3.33301 -6 9 -9 17 -9h391v-38z" />
    <glyph glyph-name="bracketleft" unicode="[" horiz-adv-x="278" 
d="M226 -186h-136v886h136v-38h-98v-810h98v-38z" />
    <glyph glyph-name="backslash" unicode="\" horiz-adv-x="318" 
d="M345 -12h-40l-371 724h40z" />
    <glyph glyph-name="bracketright" unicode="]" horiz-adv-x="278" 
d="M188 -186h-136v38h98v810h-98v38h136v-886z" />
    <glyph glyph-name="asciicircum" unicode="^" horiz-adv-x="576" 
d="M515 262h-45l-182 361l-182 -361h-45l205 403h44z" />
    <glyph glyph-name="underscore" unicode="_" horiz-adv-x="500" 
d="M500 -125h-500v50h500v-50z" />
    <glyph glyph-name="grave" unicode="`" horiz-adv-x="222" 
d="M168 534h-38l-132 138h50z" />
    <glyph glyph-name="a" unicode="a" horiz-adv-x="586" 
d="M526 0l-38.001 -0.000976562v211c0 78 -20.333 138 -61 180c-36.667 38 -83.667 57 -141 57c-62 0 -113.167 -21.5 -153.5 -64.5s-60.5 -93.833 -60.5 -152.5c0 -58 20.333 -106.667 61 -146s91.667 -59 153 -59c32 0 60.5 5.5 85.5 16.5s50.5 28.833 76.5 53.5v-44
c-21.333 -19.333 -45 -34.5 -71 -45.5s-55.667 -16.5 -89 -16.5c-67.333 0 -125.666 21.333 -174.999 64c-52.667 46 -79 105 -79 177c0 66.667 22.333 124.334 67 173.001c48.667 53.333 111 80 187 80c66 0 120.667 -21 164 -63c49.333 -48 74 -115.333 74 -202v-219z" />
    <glyph glyph-name="b" unicode="b" horiz-adv-x="587" 
d="M553 240c0 -74.667 -25.6699 -135.666 -77.0029 -182.999c-48.667 -44.667 -107.667 -67 -177 -67c-46 0 -87 10.667 -123 32c-23.333 13.333 -43 30.333 -59 51c-24 29.333 -40.333 64.333 -49 105c-5.33301 25.333 -8 60 -8 104v418h38v-418c0 -36.667 2 -65.667 6 -87
c6.66699 -36 20.334 -67.667 41.001 -95c16 -21.333 35.667 -38.333 59 -51c28 -15.333 60 -23 96 -23c58.667 0 109.167 19.833 151.5 59.5s63.5 90.834 63.5 153.501c0 48.667 -13 90.667 -39 126c-18.667 24.667 -42.667 44.667 -72 60s-64 23 -104 23
c-27.333 0 -54.166 -5.33301 -80.499 -16s-53.5 -29 -81.5 -55v44c24.667 23.333 51.167 39.666 79.5 48.999s57.5 14 87.5 14c22.667 0 44.334 -2 65.001 -6s40.334 -11 59.001 -21c35.333 -18.667 63.666 -44.334 84.999 -77.001c26 -40 39 -86.667 39 -140z" />
    <glyph glyph-name="c" unicode="c" horiz-adv-x="412" 
d="M352 0l-67 0.000976562c-54.667 0 -101.334 11.667 -140.001 35c-28.667 17.333 -52.667 41 -72 71c-11.333 17.333 -20 37.333 -26 60s-9 45.334 -9 68.001c0 49.333 11.667 93 35 131c26 42.667 62 73 108 91c30.667 12 65.334 18 104.001 18h67v-36h-79
c-43.333 0 -81 -11.333 -113 -34c-22 -15.333 -40.333 -35 -55 -59c-19.333 -32 -29 -69 -29 -111c0 -40.667 9.66699 -76.334 29 -107.001c22.667 -36.667 54.667 -62.334 96 -77.001c26.667 -9.33301 56.667 -14 90 -14h61v-36z" />
    <glyph glyph-name="d" unicode="d" horiz-adv-x="587" 
d="M527 282c0 -43.333 -2.66699 -77.6689 -8 -103.002c-8.66699 -41.333 -25 -76.666 -49 -105.999c-18.667 -23.333 -41 -42 -67 -56c-34 -18 -72.333 -27 -115 -27c-76 0 -138.333 26.333 -187 79c-44.667 48.667 -67 106 -67 172c0 47.333 11 90.333 33 129
s52.667 68 92 88c17.333 8.66699 36.666 15.167 57.999 19.5s43 6.5 65 6.5c30 0 59 -4.66699 87 -14s54.667 -25.666 80 -48.999v-44c-11.333 10.667 -23.666 20.667 -36.999 30c-18.667 12.667 -38.167 22.667 -58.5 30s-42.5 11 -66.5 11
c-23.333 0 -43.333 -1.5 -60 -4.5s-33.667 -9.16699 -51 -18.5c-32.667 -16.667 -58.167 -41.167 -76.5 -73.5s-27.5 -68.5 -27.5 -108.5c0 -57.333 19 -107 57 -149c41.333 -45.333 94 -68 158 -68c34.667 0 66.334 7.66699 95.001 23c24 12.667 44 29.667 60 51
c19.333 26 32.666 57.667 39.999 95c4.66699 24 7 53 7 87v418h38v-418z" />
    <glyph glyph-name="e" unicode="e" horiz-adv-x="560" 
d="M526 227c0 -64 -22.834 -119.5 -68.501 -166.5s-103.834 -70.5 -174.501 -70.5c-70 0 -129 23 -177 69s-72 105 -72 177s23.333 131.333 70 178s105.334 70 176.001 70c43.333 0 83 -10.167 119 -30.5s65.333 -48.833 88 -85.5l-337 -230l-21 29l305 209
c-20.667 26 -45 44.5 -73 55.5s-55.667 16.5 -83 16.5c-35.333 0 -68.666 -8.33301 -99.999 -25s-56.333 -40.667 -75 -72c-20.667 -34 -31 -73 -31 -117c0 -57.333 19.333 -106.333 58 -147s88 -61 148 -61c59.333 0 108.833 19.5 148.5 58.5s59.5 86.5 59.5 142.5h40z" />
    <glyph glyph-name="f" unicode="f" horiz-adv-x="278" 
d="M294 438h-196v-438h-38v543c0 51.333 14.333 90.333 43 117s69.667 40 123 40h67v-36h-75c-31.333 0 -56 -6 -74 -18c-30.667 -20 -46 -56.667 -46 -110v-62h196v-36z" />
    <glyph glyph-name="g" unicode="g" horiz-adv-x="586" 
d="M526 31c0 -70.667 -10.999 -124.998 -32.999 -162.998c-38 -65.333 -108.333 -98 -211 -98c-20 0 -39.167 1.66699 -57.5 5s-42.833 10.333 -73.5 21l12 36c21.333 -8.66699 42.5 -15.167 63.5 -19.5s40.833 -6.5 59.5 -6.5c82.667 0 139.667 25.667 171 77
c20.667 34 31 83.333 31 148v161c0 32 -2.33301 60.333 -7 85c-7.33301 39.333 -21 72 -41 98c-14 18.667 -31 34 -51 46c-30.667 18 -65 27 -103 27c-18.667 0 -36.5 -1.83301 -53.5 -5.5s-32.833 -9.16699 -47.5 -16.5c-34.667 -18 -62.167 -44.833 -82.5 -80.5
s-30.5 -73.834 -30.5 -114.501s11.333 -78 34 -112c19.333 -28.667 45.333 -51.334 78 -68.001s66.667 -25 102 -25s68.666 8 99.999 24c22 11.333 42.667 26.666 62 45.999v-44c-22.667 -20.667 -47.667 -36.167 -75 -46.5s-55.666 -15.5 -84.999 -15.5
c-46.667 0 -89.667 10.833 -129 32.5s-69.333 49.5 -90 83.5c-23.333 37.333 -35 79 -35 125c0 49.333 13.333 95.333 40 138c24.667 39.333 57 69 97 89c18 8.66699 36.5 15.167 55.5 19.5s39.5 6.5 61.5 6.5c38.667 0 73.167 -7.33301 103.5 -22s55.833 -34.667 76.5 -60
c17.333 -21.333 30.666 -47 39.999 -77c12 -37.333 18 -81.666 18 -132.999v-161z" />
    <glyph glyph-name="h" unicode="h" horiz-adv-x="500" 
d="M440 0h-38.001v283c0 50 -14.333 90 -43 120s-64 45 -106 45c-45.333 0 -82.5 -15.5 -111.5 -46.5s-43.5 -70.167 -43.5 -117.5v-284h-38v700h38v-296c12 19.333 27 35.333 45 48c30.667 21.333 67.334 32 110.001 32c55.333 0 100.333 -18.333 135 -55s52 -85 52 -145
v-284z" />
    <glyph glyph-name="i" unicode="i" horiz-adv-x="180" 
d="M120 608c0 -20 -10 -30 -30 -30s-30 10 -30 30s10 30 30 30s30 -10 30 -30zM109 0h-38v474h38v-474z" />
    <glyph glyph-name="j" unicode="j" horiz-adv-x="201" 
d="M141 608c0 -20 -10 -30 -30 -30s-30 10 -30 30s10 30 30 30s30 -10 30 -30zM131 -53c0 -56.667 -13.001 -100 -39.001 -130s-64.667 -45 -116 -45h-26v36h26c46.667 0 79.334 16.333 98.001 49c12.667 22 19 50.667 19 86v531h38v-527z" />
    <glyph glyph-name="k" unicode="k" horiz-adv-x="444" 
d="M406 474l-80.001 -121c-16 -24.667 -28 -41.334 -36 -50.001c-10.667 -12.667 -22.667 -23 -36 -31c22.667 0 44 -5.33301 64 -16c15.333 -8 28.333 -18.333 39 -31c14.667 -18 24.334 -40.333 29.001 -67c2.66699 -15.333 4 -37.666 4 -66.999v-91h-38v97
c0 22.667 -1.33301 42.667 -4 60s-9 32.333 -19 45s-23 22.167 -39 28.5s-35.333 9.5 -58 9.5h-134v-240h-38v700h38v-424h78c30 0 58.333 17.333 85 52l43 63l56 83h46z" />
    <glyph glyph-name="l" unicode="l" horiz-adv-x="222" 
d="M130 0h-38v700h38v-700z" />
    <glyph glyph-name="m" unicode="m" horiz-adv-x="726" 
d="M666 0l-38.0039 -0.00195312v299c0 18.667 -1.16699 35.5 -3.5 50.5s-7.66602 29.5 -15.999 43.5s-19.833 25.667 -34.5 35c-20 13.333 -43 20 -69 20c-27.333 0 -50.333 -6.66699 -69 -20c-13.333 -9.33301 -24.5 -21.333 -33.5 -36s-14.667 -30.667 -17 -48
s-3.5 -36 -3.5 -56v-288h-38v288v12c0 18.667 -1.16699 35 -3.5 49s-8 28.333 -17 43s-19.833 26.334 -32.5 35.001c-20 14 -43.333 21 -70 21s-49.667 -6.33301 -69 -19c-14 -9.33301 -25.167 -21.166 -33.5 -35.499s-13.833 -28.666 -16.5 -42.999s-4 -31.5 -4 -51.5v-299
h-38v298c0 40 5 72 15 96c13.333 32 37.333 56.667 72 74c22.667 11.333 48.334 17 77.001 17c30.667 0 57.334 -6.66699 80.001 -20c27.333 -16 47.333 -40.667 60 -74c10.667 32 28.334 55.5 53.001 70.5s54 22.5 88 22.5c27.333 0 52 -5.33301 74 -16
c34 -16.667 57.667 -41.334 71 -74.001c10.667 -25.333 16 -57.333 16 -96v-298z" />
    <glyph glyph-name="n" unicode="n" horiz-adv-x="500" 
d="M440 0l-37.999 0.000976562v268c0 39.333 -5 71 -15 95c-12.667 30.667 -34.667 53.667 -66 69c-21.333 10.667 -45 16 -71 16s-49.667 -5.33301 -71 -16c-30.667 -15.333 -51.834 -36.833 -63.501 -64.5s-17.5 -60.834 -17.5 -99.501v-268h-38v272c0 43.333 6 79 18 107
c16 36.667 44 65 84 85c12 6 25.833 10.833 41.5 14.5s31.167 5.5 46.5 5.5c32.667 0 62 -6.66699 88 -20c40 -20 68 -48.333 84 -85c12 -27.333 18 -63 18 -107v-272z" />
    <glyph glyph-name="o" unicode="o" horiz-adv-x="584" 
d="M524 237c0 -68.667 -23.667 -127 -71 -175s-104.666 -72 -171.999 -72s-124.666 24 -171.999 72s-71 106.333 -71 175s23.667 127 71 175s104.666 72 171.999 72s124.666 -24 171.999 -72s71 -106.333 71 -175zM486 237c0 59.333 -19.667 109.333 -59 150s-88 61 -146 61
c-57.333 0 -105.833 -20.167 -145.5 -60.5s-59.5 -90.5 -59.5 -150.5c0 -59.333 19.667 -109.333 59 -150s88 -61 146 -61c57.333 0 105.833 20.167 145.5 60.5s59.5 90.5 59.5 150.5z" />
    <glyph glyph-name="p" unicode="p" horiz-adv-x="587" 
d="M553 236c0 -48.667 -11.1641 -92.667 -33.4971 -132s-52.833 -69 -91.5 -89c-18.667 -10 -38.834 -16.833 -60.501 -20.5s-45.5 -5.5 -71.5 -5.5c-30 0 -57.667 4.83301 -83 14.5s-50.333 25.834 -75 48.501v44c28 -26 55.167 -44.333 81.5 -55s53.166 -16 80.499 -16
c46.667 0 86.334 9.33301 119.001 28c28 16 50.667 39 68 69c9.33301 16 16.333 34 21 54s7 40 7 60c0 18.667 -2.5 36.667 -7.5 54s-12.833 35 -23.5 53c-16 26.667 -35 48.334 -57 65.001c-36 26.667 -78.333 40 -127 40c-34.667 0 -66.334 -7.66699 -95.001 -23
c-24 -12.667 -44 -29.667 -60 -51c-19.333 -26 -32.666 -57.667 -39.999 -95c-4.66699 -24 -7 -53 -7 -87v-418h-38v418c0 43.333 2.66699 77.666 8 102.999c8.66699 41.333 25 76.666 49 105.999c19.333 24 41.666 42.667 66.999 56c33.333 18 71.666 27 114.999 27
s83.5 -9.16699 120.5 -27.5s67.833 -46.5 92.5 -84.5c27.333 -42 41 -87.333 41 -136z" />
    <glyph glyph-name="q" unicode="q" horiz-adv-x="587" 
d="M527 -226l-38 -0.000976562v418c0 36.667 -2 65.667 -6 87c-6.66699 36 -20.334 67.667 -41.001 95c-16 21.333 -35.667 38.333 -59 51c-28 15.333 -60 23 -96 23c-38 0 -72.333 -8 -103 -24s-56.334 -40 -77.001 -72c-23.333 -35.333 -35 -74 -35 -116
c0 -22 2.16699 -42.167 6.5 -60.5s11.5 -36.166 21.5 -53.499c17.333 -30 40 -53 68 -69c32.667 -18.667 72.334 -28 119.001 -28c28.667 0 55.667 5 81 15s52.333 28.667 81 56v-44c-23.333 -21.333 -48.333 -37.166 -75 -47.499s-54.334 -15.5 -83.001 -15.5
c-60 0 -110.333 12.667 -151 38c-30.667 18.667 -55 44 -73 76c-11.333 19.333 -19.666 40.5 -24.999 63.5s-8 46.167 -8 69.5c0 49.333 13 93.666 39 132.999s58.667 69 98 89c18 8.66699 36.5 15.167 55.5 19.5s39.5 6.5 61.5 6.5c42.667 0 80.667 -9 114 -27
c26.667 -14 49.334 -32.667 68.001 -56c24 -29.333 40.333 -64.333 49 -105c5.33301 -25.333 8 -60 8 -104v-418z" />
    <glyph glyph-name="r" unicode="r" horiz-adv-x="278" 
d="M284 438h-39.999c-12 0 -24.5 -1.66699 -37.5 -5s-24.5 -7.66602 -34.5 -12.999c-30 -16 -50.667 -42.333 -62 -79c-8 -25.333 -12 -56.333 -12 -93v-248h-38v474h38v-91c5.33301 13.333 11.666 25 18.999 35c10 13.333 23.333 24.666 40 33.999
c27.333 14.667 55 22 83 22h44v-36z" />
    <glyph glyph-name="s" unicode="s" horiz-adv-x="438" 
d="M400 120c0 -23.333 -6 -44.1689 -18 -62.502s-30.167 -32.5 -54.5 -42.5s-55.5 -15 -93.5 -15h-196v36h200c24 0 44 2 60 6c26.667 6.66699 45 18.667 55 36c3.33301 5.33301 5.66602 11.333 6.99902 18s2 13.334 2 20.001c0 21.333 -5.5 39 -16.5 53
s-26.167 25.167 -45.5 33.5s-49.666 17.166 -90.999 26.499s-68 16 -80 20c-27.333 9.33301 -48.333 22 -63 38c-18.667 20.667 -28 45.667 -28 75c0 18.667 3.66699 35 11 49c10 20.667 24.833 36.334 44.5 47.001s49.167 16 88.5 16h186v-36h-193c-24 0 -39.667 -1 -47 -3
c-16.667 -4.66699 -30 -14.667 -40 -30c-4 -6 -7 -13.167 -9 -21.5s-3 -16.166 -3 -23.499c0 -16.667 5.33301 -32 16 -46c8.66699 -11.333 24 -21 46 -29c16 -6 42.667 -13.333 80 -22c79.333 -17.333 130 -38 152 -62c20 -21.333 30 -48.333 30 -81z" />
    <glyph glyph-name="t" unicode="t" horiz-adv-x="254" 
d="M266 0l-68 0.000976562c-56 0 -94.667 17.333 -116 52c-14.667 24 -22 59.333 -22 106v446h38v-130h168v-36h-168v-278c0 -24 0.666992 -41.5 2 -52.5s6.33301 -23.333 15 -37s20 -22.834 34 -27.501s30.333 -7 49 -7h68v-36z" />
    <glyph glyph-name="u" unicode="u" horiz-adv-x="500" 
d="M440 202c0 -44.667 -6.00195 -80.333 -18.002 -107c-16 -35.333 -44 -63.666 -84 -84.999c-13.333 -6.66699 -26.666 -12.167 -39.999 -16.5s-26.333 -6.5 -39 -6.5c-17.333 0 -33.833 1.66699 -49.5 5s-31.5 9.33301 -47.5 18c-40.667 21.333 -68.667 49.666 -84 84.999
c-12 27.333 -18 63 -18 107v272h38v-268c0 -39.333 5 -71 15 -95c12.667 -30.667 34.667 -53.667 66 -69c21.333 -10.667 45 -16 71 -16s49.667 5.33301 71 16c30.667 15.333 52.334 38 65.001 68c10.667 25.333 16 57.333 16 96v268h38v-272z" />
    <glyph glyph-name="v" unicode="v" horiz-adv-x="444" 
d="M448 474l-181.999 -459c-4.66699 -11.333 -12.334 -19.333 -23.001 -24c-6 -2.66699 -13 -4 -21 -4c-10.667 0 -19.667 2.16699 -27 6.5s-13 11.5 -17 21.5l-182 459h44l168 -429c5.33301 -13.333 10 -20 14 -20s8.66699 6.66699 14 20l168 429h44z" />
    <glyph glyph-name="w" unicode="w" horiz-adv-x="726" 
d="M666 175c0 -39.333 -5 -71 -15 -95c-13.333 -32 -37.333 -56.667 -72 -74c-22 -10.667 -47.667 -16 -77 -16c-26 0 -47.167 3.83301 -63.5 11.5s-29.833 16.5 -40.5 26.5c-15.333 15.333 -26.666 33.666 -33.999 54.999c-8.66699 -22.667 -20.334 -41 -35.001 -55
c-11.333 -10.667 -24.666 -19.334 -39.999 -26.001c-9.33301 -4 -20.333 -7 -33 -9s-24.334 -3 -35.001 -3c-27.333 0 -52 5.33301 -74 16c-33.333 16.667 -57 41.334 -71 74.001c-10.667 25.333 -16 57 -16 95v299h38v-299c0 -20 1.33301 -37.167 4 -51.5s8 -28.5 16 -42.5
s19.333 -25.667 34 -35c20 -13.333 43 -20 69 -20c19.333 0 37.666 4 54.999 12c29.333 14 49 36.667 59 68c6 18.667 9 45.334 9 80.001v288h38v-288c0 -28 1.83301 -49.667 5.5 -65s8.5 -28.333 14.5 -39c10.667 -18 25.334 -31.833 44.001 -41.5s38.667 -14.5 60 -14.5
c10.667 0 20 0.666992 28 2s16.333 4.33301 25 9c29.333 14 49.333 36.667 60 68c6 18 9 41.333 9 70v299h38v-299z" />
    <glyph glyph-name="x" unicode="x" horiz-adv-x="442" 
d="M424 0h-9c-46.667 0 -87.667 14 -123 42c-31.333 24.667 -55 57.667 -71 99c-16 -40 -39.667 -72.667 -71 -98c-36 -28.667 -77 -43 -123 -43h-9v36h10c54.667 0 98.334 22.667 131.001 68c28.667 39.333 43 83.666 43 132.999s-14 93.333 -42 132
c-33.333 46 -77.333 69 -132 69h-10v36h9c46.667 0 87.667 -14 123 -42c31.333 -24.667 55 -57.667 71 -99c16 40 39.667 72.667 71 98c36 28.667 77 43 123 43h9v-36h-10c-54.667 0 -98.334 -22.667 -131.001 -68c-28.667 -39.333 -43 -83.666 -43 -132.999
s14 -93.333 42 -132c33.333 -46 77.333 -69 132 -69h10v-36z" />
    <glyph glyph-name="y" unicode="y" horiz-adv-x="500" 
d="M440 202c0 -76 -22.001 -132.332 -66.001 -168.999c-28 -23.333 -63 -37 -105 -41v-208h-38v208c-55.333 0 -97.666 18.667 -126.999 56s-44 88.666 -44 153.999v272h38v-268c0 -21.333 1.33301 -41 4 -59s9.16699 -36.167 19.5 -54.5s27.333 -34 51 -47
s49.5 -19.5 77.5 -19.5c29.333 0 55.333 6.33301 78 19s40 30 52 52c8 14.667 13.667 32 17 52s5 39 5 57v268h38v-272z" />
    <glyph glyph-name="z" unicode="z" horiz-adv-x="389" 
d="M367 0h-302c-14 0 -24.667 4 -32 12s-11 16.667 -11 26c-2 18 6 37.333 24 58l259 313c6.66699 8 10 14 10 18c0 4.66699 -2 7.66699 -6 9s-8 2 -12 2h-252v36h270c14 0 24.667 -4 32 -12s11 -16.667 11 -26c2 -18 -6 -37.333 -24 -58l-259 -313
c-6.66699 -8 -10 -14.667 -10 -20c0 -4 1.5 -6.5 4.5 -7.5s7.5 -1.5 13.5 -1.5h284v-36z" />
    <glyph glyph-name="braceleft" unicode="{" horiz-adv-x="278" 
d="M226 -186l-26.0029 0.000976562h-18c-23.333 0 -38.666 5.66699 -45.999 17c-10.667 16 -16 50.333 -16 103v155v34c0 44 -2.33301 73 -7 87c-7.33301 21.333 -23 33 -47 35v36c26.667 2 43 16.667 49 44c3.33301 14.667 5 52 5 112v155c0 52.667 5 86.667 15 102
c8 12 23 18 45 18h20h26v-38h-27h-17c-6 -1.33301 -11 -5 -15 -11c-1.33301 -2 -2.66602 -5.33301 -3.99902 -10c-3.33301 -14.667 -5 -40.667 -5 -78v-157c0 -34 -2 -59.667 -6 -77c-7.33301 -33.333 -22.666 -59.333 -45.999 -78c22.667 -20.667 37 -42.167 43 -64.5
s9 -52.5 9 -90.5v-157c0 -32 0.833008 -53.833 2.5 -65.5s4.16699 -19.834 7.5 -24.501s8 -7.66699 14 -9h17h27v-38z" />
    <glyph glyph-name="bar" unicode="|" horiz-adv-x="222" 
d="M131 0h-40v700h40v-700z" />
    <glyph glyph-name="braceright" unicode="}" horiz-adv-x="278" 
d="M226 245c-23.333 -2 -38.166 -12.167 -44.499 -30.5s-9.5 -48.833 -9.5 -91.5v-34v-155c0 -52.667 -4.5 -85.834 -13.5 -99.501s-24.5 -20.5 -46.5 -20.5h-20h-26v38h27h17c6 1.33301 11 5 15 11c1.33301 2 3.16602 7.83301 5.49902 17.5s3.5 33.167 3.5 70.5v157
c0 40 2.83301 70.5 8.5 91.5s20.167 42.167 43.5 63.5c-22 18 -37 44 -45 78c-4.66699 20 -7 45.667 -7 77v157c0 32 -0.833008 53.833 -2.5 65.5s-4.16699 19.834 -7.5 24.501s-8 7.66699 -14 9h-17h-27v38h26c32 0 51.667 -3.66699 59 -11c14 -14 21 -50.333 21 -109v-155
c0 -52.667 0.333008 -82.667 1 -90c3.33301 -41.333 21 -63.333 53 -66v-36z" />
    <glyph glyph-name="asciitilde" unicode="~" horiz-adv-x="576" 
d="M512 257c-17.333 -30.667 -39 -53.001 -65 -67.001c-18.667 -10 -38 -15 -58 -15c-15.333 0 -33.333 3.66699 -54 11c-6 2 -22.333 9 -49 21c-11.333 4.66699 -28.166 11.167 -50.499 19.5s-40.5 12.5 -54.5 12.5c-37.333 0 -68 -22.667 -92 -68l-25 23
c13.333 25.333 31.333 45.333 54 60s45.667 22 69 22c15.333 0 34.333 -4.33301 57 -13c9.33301 -3.33301 24.666 -9.66602 45.999 -18.999s38.333 -16.333 51 -21c22.667 -8 40.334 -12 53.001 -12c37.333 0 68.666 22.667 93.999 68z" />
    <glyph glyph-name="c128" horiz-adv-x="639" 
d="M575 207c0 -82 -25.002 -139.667 -75.002 -173c-34 -22.667 -79.667 -34 -137 -34h-66v38h66c72.667 0 121.667 21 147 63c15.333 25.333 23 63 23 113v125c0 48 -15 85.667 -45 113s-71 41 -123 41c-39.333 0 -72 -8.66699 -98 -26
c-42.667 -28.667 -64 -77.667 -64 -147v-320h-42v662h-159v38h471v-38h-270v-210c18.667 25.333 40.334 44.333 65.001 57c28.667 14.667 63 22 103 22c60.667 0 109.834 -18.167 147.501 -54.5s56.5 -84.5 56.5 -144.5v-125z" />
    <glyph glyph-name="c129" horiz-adv-x="421" 
d="M431 900l-132 -138h-38l120 138h50zM426 662h-128.001c-39.333 0 -65.333 -1 -78 -3c-31.333 -4.66699 -55.666 -16 -72.999 -34s-28.5 -39 -33.5 -63s-7.5 -51 -7.5 -81v-481h-42v481c0 40.667 2.66699 72.334 8 95.001c8.66699 35.333 25.334 63.666 50.001 84.999
c19.333 16 41.666 26.5 66.999 31.5s54.333 7.5 87 7.5h22h128v-38z" />
    <glyph glyph-name="c141" 
d="M337 900l-132 -138h-38l120 138h50zM526 700l-99.999 -217.999c-15.333 -33.333 -31.666 -58.333 -48.999 -75c-14.667 -14 -31.334 -23.667 -50.001 -29c42.667 0 79.667 -13.333 111 -40c49.333 -42 74 -110.333 74 -205v-88c0 -8 0.833008 -16.167 2.5 -24.5
s3.5 -15.166 5.5 -20.499h-43c-2 10.667 -3.66699 20.667 -5 30s-2 16.666 -2 21.999v79c0 88 -23 148.667 -69 182c-31.333 22.667 -77 34 -137 34h-158v-347h-42v700h42v-315h112c47.333 0 82.666 9 105.999 27c28 21.333 57.333 66.666 88 135.999l67 152h47z" />
    <glyph glyph-name="c142" horiz-adv-x="639" 
d="M575 0l-41.999 0.000976562v321c0 62.667 -18.667 108.667 -56 138c-28.667 22.667 -66 34 -112 34c-44 0 -80 -11.333 -108 -34c-36 -29.333 -54 -75.333 -54 -138v-321h-42v662h-159v38h471v-38h-270v-210c18.667 25.333 40.667 44.333 66 57
c28.667 14.667 62.667 22 102 22c61.333 0 110.666 -18.333 147.999 -55s56 -86.334 56 -149.001v-327z" />
    <glyph glyph-name="c143" horiz-adv-x="610" 
d="M546 0h-220v-242h-42v242h-220v700h42v-662h398v662h42v-700z" />
    <glyph glyph-name="c144" horiz-adv-x="596" 
d="M536 -53c0 -56.667 -13.002 -100.001 -39.002 -130.001s-64.667 -45 -116 -45h-26v36h26c46.667 0 79.334 16.333 98.001 49c12.667 22 19 50.667 19 86v341c0 50.667 -16.667 91.667 -50 123c-29.333 27.333 -63.333 41 -102 41c-39.333 0 -73.333 -13.333 -102 -40
c-33.333 -30.667 -50 -72 -50 -124v-284h-38v548h-96v38h96v114h38v-114h268v-38h-268v-144c20.667 32 48.334 54.667 83.001 68c21.333 8 44.333 12 69 12c56 0 101.667 -18.667 137 -56s53 -83.666 53 -138.999v-342z" />
    <glyph glyph-name="c157" horiz-adv-x="444" 
d="M373 672l-132 -138h-38l120 138h50zM406 474l-69 -119.002c-17.333 -30 -31.833 -51.833 -43.5 -65.5s-24.834 -25.167 -39.501 -34.5c22 0 42 -4.33301 60 -13s32.333 -19.667 43 -33c14.667 -17.333 24.334 -38.666 29.001 -63.999
c2.66699 -15.333 4 -38.666 4 -69.999v-75h-38v80c0 22 -1.33301 41.667 -4 59s-9.16699 32.5 -19.5 45.5s-24.166 22.667 -41.499 29s-35.666 9.5 -54.999 9.5h-134v-223h-38v474h38v-215h78c13.333 0 25.666 3 36.999 9s21.833 13.833 31.5 23.5s19.667 21.667 30 36
s20.166 29.833 29.499 46.5l56 100h46z" />
    <glyph glyph-name="c158" horiz-adv-x="536" 
d="M536 0l-38.001 -0.000976562v284c0 50.667 -16.667 91.667 -50 123c-29.333 27.333 -63.333 41 -102 41c-39.333 0 -73.333 -13.333 -102 -40c-33.333 -30.667 -50 -72 -50 -124v-284h-38v548h-96v38h96v114h38v-114h268v-38h-268v-144
c20.667 32 48.334 54.667 83.001 68c21.333 8 44.333 12 69 12c56 0 101.667 -18.667 137 -56s53 -83.666 53 -138.999v-289z" />
    <glyph glyph-name="nonbreakingspace" unicode="&#xa0;" horiz-adv-x="500" 
 />
    <glyph glyph-name="exclamdown" unicode="&#xa1;" horiz-adv-x="604" 
d="M452 810c-9.33301 -30.667 -27.1689 -55 -53.502 -73s-58.5 -27 -96.5 -27s-70.167 9 -96.5 27s-44.166 42.333 -53.499 73h42c6.66699 -19.333 19.834 -34.5 39.501 -45.5s42.5 -16.5 68.5 -16.5c26.667 0 49.5 5.16699 68.5 15.5s32.167 25.833 39.5 46.5h42z
M457.997 267l-143 0.000976562c-74 0 -129 11 -165 33c-57.333 34.667 -86 99.667 -86 195v205h42v-201c0 -60.667 9.66699 -104.334 29 -131.001c30.667 -42 90.667 -63 180 -63h143v-38zM539.997 246.001c0 -72.667 -11.333 -126.333 -34 -161
c-37.333 -56.667 -108.333 -85 -213 -85h-187v38h187c86.667 0 145.667 22.333 177 67c18.667 26.667 28 64.667 28 114v481h42v-454z" />
    <glyph glyph-name="cent" unicode="&#xa2;" horiz-adv-x="504" 
d="M406 670c-10 -30.667 -25.002 -55.333 -45.002 -74c-28 -25.333 -64.333 -38 -109 -38c-44 0 -80 12.667 -108 38c-21.333 19.333 -36.666 44 -45.999 74h38c8.66699 -20 20 -36 34 -48c22 -18.667 49.333 -28 82 -28s59.667 9 81 27c14.667 12.667 26.334 29 35.001 49
h38zM443.998 21.001c0 -45.333 -2.33203 -77.998 -6.99902 -97.998c-9.33301 -38.667 -29 -71.334 -59 -98.001c-20.667 -18 -44 -31.5 -70 -40.5s-53.333 -13.5 -82 -13.5c-23.333 0 -48.333 3 -75 9s-56.667 15.667 -90 29l13 39c19.333 -9.33301 38.666 -17 57.999 -23
c36.667 -12 69 -18 97 -18c30.667 0 59.667 7 87 21c40.667 21.333 67 50 79 86c7.33301 22 11 57.667 11 107v55c-12.667 -19.333 -28.334 -36 -47.001 -50c-16 -12 -33.667 -21 -53 -27s-39.666 -9 -60.999 -9c-24 0 -47.667 4 -71 12c-48 18 -80.667 50.667 -98 98
c-10.667 29.333 -16 71.666 -16 126.999v247h38v-245c0 -47.333 2.33301 -80 7 -98c9.33301 -36 30 -64 62 -84c21.333 -14 47.333 -21 78 -21c36 0 68 10.333 96 31s46.667 48 56 82c6 22 9 52 9 90v245h38v-453z" />
    <glyph glyph-name="sterling" unicode="&#xa3;" horiz-adv-x="327" 
d="M263 241c0 -71.333 -9.33398 -123.667 -28.001 -157c-31.333 -56 -92.666 -84 -183.999 -84h-66v38h66c77.333 0 128 25 152 75c12 24.667 18 67 18 127v460h42v-459z" />
    <glyph glyph-name="currency" unicode="&#xa4;" 
d="M526 350c0 -27.333 -4.66699 -54.666 -14 -81.999s-24.333 -53 -45 -77l55 -55l-29 -30l-55 55c-23.333 -20 -49.166 -34.833 -77.499 -44.5s-55.833 -14.5 -82.5 -14.5c-28 0 -55.667 4.66699 -83 14s-53 24.333 -77 45l-55 -55l-29 30l55 55
c-20 23.333 -34.833 49.166 -44.5 77.499s-14.5 55.5 -14.5 81.5c0 27.333 4.66699 54.666 14 81.999s24.333 53 45 77l-55 55l29 30l55 -55c23.333 20 49.166 34.833 77.499 44.5s55.833 14.5 82.5 14.5c28 0 55.667 -4.66699 83 -14s53 -24.333 77 -45l55 55l29 -30
l-55 -55c20 -23.333 34.833 -49.166 44.5 -77.499s14.5 -55.5 14.5 -81.5zM488 350c0 59.333 -20.167 109.5 -60.5 150.5s-90.166 61.5 -149.499 61.5c-58.667 0 -108.334 -20.333 -149.001 -61s-61 -91 -61 -151c0 -59.333 20.167 -109.5 60.5 -150.5
s90.166 -61.5 149.499 -61.5c58.667 0 108.334 20.333 149.001 61s61 91 61 151z" />
    <glyph glyph-name="yen" unicode="&#xa5;" horiz-adv-x="422" 
d="M426 662h-128.001c-39.333 0 -65.333 -1 -78 -3c-31.333 -4.66699 -55.666 -16 -72.999 -34s-28.5 -39 -33.5 -63s-7.5 -51 -7.5 -81v-481h-42v481c0 40.667 2.66699 72.334 8 95.001c8.66699 35.333 25.334 63.666 50.001 84.999c19.333 16 41.666 26.5 66.999 31.5
s54.333 7.5 87 7.5h22h86v52h42v-90z" />
    <glyph glyph-name="brokenbar" unicode="&#xa6;" horiz-adv-x="222" 
d="M131 432h-40v268h40v-268zM131 0h-40v268h40v-268z" />
    <glyph glyph-name="section" unicode="&#xa7;" horiz-adv-x="488" 
d="M450 288c0 -28.667 -8.99902 -53.002 -26.999 -73.002s-42.667 -30 -74 -30c24 -10 43.5 -25.667 58.5 -47s22.5 -45.666 22.5 -72.999c0 -38 -13.833 -67.5 -41.5 -88.5s-69.167 -31.5 -124.5 -31.5h-196v36h200c38 0 66.667 5 86 15c25.333 13.333 38 35 38 65
c0 44 -24.333 79.333 -73 106c-14.667 8 -41.334 19.667 -80.001 35c-52 20.667 -89 40.334 -111 59.001c-30 25.333 -45 56 -45 92c0 30 10.833 55.167 32.5 75.5s50.5 30.5 86.5 30.5c-24.667 11.333 -45 26 -61 44c-23.333 26.667 -35 58 -35 94
c0 38.667 12 67.5 36 86.5s58 28.5 102 28.5h192v-36h-193c-28.667 0 -49.667 -3.33301 -63 -10c-24 -12 -36 -34.667 -36 -68s12.333 -61.333 37 -84c19.333 -18 55 -39.167 107 -63.5s86 -42.5 102 -54.5c40 -30 60 -66 60 -108zM412.001 287.998
c0 26 -11.666 49.667 -34.999 71c-14.667 14 -36 27.667 -64 41c-16.667 8 -33.834 14.833 -51.501 20.5s-35.167 8.5 -52.5 8.5c-30 0 -53 -8.33301 -69 -25c-13.333 -14 -20 -30 -20 -48c0 -27.333 12.667 -51 38 -71c17.333 -14 44.333 -28.667 81 -44
c8 -3.33301 22.667 -8.5 44 -15.5s38.333 -10.5 51 -10.5c20 0 38 6.33301 54 19s24 30.667 24 54z" />
    <glyph glyph-name="dieresis" unicode="&#xa8;" horiz-adv-x="462" 
d="M404 772c0 -9.33301 -3.33301 -17.333 -10 -24s-14.667 -10 -24 -10s-17.333 3.33301 -24 10s-10 14.667 -10 24s3.33301 17.333 10 24s14.667 10 24 10s17.333 -3.33301 24 -10s10 -14.667 10 -24zM246 772c0 -9.33301 -3.33301 -17.333 -10 -24s-14.667 -10 -24 -10
s-17.333 3.33301 -24 10s-10 14.667 -10 24s3.33301 17.333 10 24s14.667 10 24 10s17.333 -3.33301 24 -10s10 -14.667 10 -24zM428 0l-168.999 0.000976562c-38.667 0 -69.334 3.33301 -92.001 10c-38.667 11.333 -70.5 33.833 -95.5 67.5s-37.5 74.167 -37.5 121.5
c0 34.667 6.66699 65.667 20 93c8.66699 17.333 19.667 32.666 33 45.999c17.333 17.333 37.333 30.666 60 39.999c-24 12.667 -43.667 29.334 -59 50.001c-10 13.333 -18.333 29.5 -25 48.5s-10 39.5 -10 61.5c0 16.667 1.5 31.834 4.5 45.501s8.16699 27.167 15.5 40.5
c19.333 32 47 53.667 83 65c24 7.33301 58 11 102 11h170v-38h-170c-36.667 0 -62.667 -2 -78 -6c-31.333 -8.66699 -54.666 -26.667 -69.999 -54c-8.66699 -16.667 -13 -37.667 -13 -63c0 -22 3.66699 -41.667 11 -59c15.333 -34.667 39.333 -58.667 72 -72
c22 -8.66699 49 -13 81 -13h167v-38h-167c-34 0 -62.667 -4 -86 -12c-40.667 -14 -69 -40.333 -85 -79c-4 -9.33301 -7 -20 -9 -32s-3 -23.667 -3 -35c0 -17.333 3 -35.5 9 -54.5s14.667 -35.5 26 -49.5c17.333 -22.667 40.333 -38.334 69 -47.001
c21.333 -6.66699 46.666 -10 75.999 -10h170v-38z" />
    <glyph glyph-name="copyright" unicode="&#xa9;" horiz-adv-x="808" 
d="M758 350c0 -98 -34.833 -182.502 -104.5 -253.502s-153.167 -106.5 -250.5 -106.5c-98 0 -181.333 35.333 -250 106s-103 155.334 -103 254.001s34.333 183.334 103 254.001s152 106 250 106c97.333 0 180.833 -35.5 250.5 -106.5s104.5 -155.5 104.5 -253.5z
M714 349.998c0 87.333 -29.667 162.333 -89 225c-61.333 64.667 -135.333 97 -222 97s-159.834 -31.833 -219.501 -95.5s-89.5 -139.167 -89.5 -226.5s29.833 -162.833 89.5 -226.5s132.834 -95.5 219.501 -95.5s160.167 31.833 220.5 95.5s90.5 139.167 90.5 226.5z
M492 132.998h-61.001c-71.333 0 -127.666 23.333 -168.999 70c-36 40.667 -54 89.667 -54 147c0 58 17.667 107 53 147c41.333 46.667 98 70 170 70h61v-36h-47c-67.333 0 -118.666 -20 -153.999 -60c-28.667 -32.667 -43 -73 -43 -121c0 -46 14.333 -85.667 43 -119
c35.333 -41.333 86.666 -62 153.999 -62h47v-36z" />
    <glyph glyph-name="ordfeminine" unicode="&#xaa;" horiz-adv-x="494" 
d="M454 0l-66.001 -0.000976562c-105.333 0 -191.333 31.333 -258 94c-69.333 64.667 -104 150 -104 256c0 96 30 177 90 243c65.333 71.333 151.333 107 258 107h80v-38h-80c-87.333 0 -160.666 -29.333 -219.999 -88c-56 -55.333 -84 -120.666 -84 -195.999h384v-36h-384
c0 -85.333 29 -157.333 87 -216s130.333 -88 217 -88h80v-38z" />
    <glyph glyph-name="guillemotleft" unicode="&#xab;" horiz-adv-x="389" 
d="M337 82h-47l-120 155l120 155h47l-120 -155zM214 82h-47l-120 155l120 155h47l-120 -155z" />
    <glyph glyph-name="logicalnot" unicode="&#xac;" horiz-adv-x="600" 
d="M536 125h-40v184h-432v40h472v-224z" />
    <glyph glyph-name="minus" unicode="&#xad;" horiz-adv-x="334" 
d="M262 218h-190v38h190v-38z" />
    <glyph glyph-name="registered" unicode="&#xae;" horiz-adv-x="808" 
d="M758 350c0 -98 -34.833 -182.502 -104.5 -253.502s-153.167 -106.5 -250.5 -106.5c-98 0 -181.333 35.333 -250 106s-103 155.334 -103 254.001s34.333 183.334 103 254.001s152 106 250 106c97.333 0 180.833 -35.5 250.5 -106.5s104.5 -155.5 104.5 -253.5z
M714 349.998c0 87.333 -29.667 162.333 -89 225c-61.333 64.667 -135.333 97 -222 97s-159.834 -31.833 -219.501 -95.5s-89.5 -139.167 -89.5 -226.5s29.833 -162.833 89.5 -226.5s132.834 -95.5 219.501 -95.5s160.167 31.833 220.5 95.5s90.5 139.167 90.5 226.5z
M549 148.998l-37.001 -0.00195312c-1.33301 8.66699 -2.5 15.834 -3.5 21.501s-1.5 8.83398 -1.5 9.50098v51v13c0 26.667 -5 47.667 -15 63c-16 24.667 -44 37 -84 37h-60v36h39c26 0 47.333 3.66699 64 11c30.667 13.333 46 37 46 71c0 26.667 -8.5 46.834 -25.5 60.501
s-39.5 20.5 -67.5 20.5c-41.333 0 -69.333 -16.667 -84 -50c-8 -18.667 -12 -45.667 -12 -81v-263h-38v272c0 63.333 17.667 108 53 134c22 16 50 24 84 24c40.667 0 72.5 -10.833 95.5 -32.5s34.5 -49.834 34.5 -84.501c0 -23.333 -6.16699 -43.666 -18.5 -60.999
s-29.166 -30 -50.499 -38c32 -5.33301 54 -22.333 66 -51c7.33301 -18 11 -42.667 11 -74v-63c0 -10.667 1.33301 -19.334 4 -26.001z" />
    <glyph glyph-name="macron" unicode="&#xaf;" horiz-adv-x="170" 
d="M199 796c0 -9.33301 -3.33301 -17.333 -10 -24s-14.667 -10 -24 -10s-17.333 3.33301 -24 10s-10 14.667 -10 24s3.33301 17.333 10 24s14.667 10 24 10s17.333 -3.33301 24 -10s10 -14.667 10 -24zM41 796c0 -9.33301 -3.33301 -17.333 -10 -24s-14.667 -10 -24 -10
s-17.333 3.33301 -24 10s-10 14.667 -10 24s3.33301 17.333 10 24s14.667 10 24 10s17.333 -3.33301 24 -10s10 -14.667 10 -24zM106 0h-42v700h42v-700z" />
    <glyph glyph-name="degree" unicode="&#xb0;" horiz-adv-x="400" 
d="M344 569c0 -39.333 -14 -73 -42 -101s-62 -42 -102 -42c-39.333 0 -73.166 13.833 -101.499 41.5s-42.5 61.5 -42.5 101.5c0 39.333 14 73 42 101s62 42 102 42c39.333 0 73.166 -13.833 101.499 -41.5s42.5 -61.5 42.5 -101.5zM308 569
c0 30.667 -10.5 57.167 -31.5 79.5s-46.5 33.5 -76.5 33.5c-29.333 0 -54.666 -11.333 -75.999 -34s-32 -49 -32 -79c0 -30.667 10.5 -57.167 31.5 -79.5s46.5 -33.5 76.5 -33.5c29.333 0 54.666 11.333 75.999 34s32 49 32 79z" />
    <glyph glyph-name="plusminus" unicode="&#xb1;" horiz-adv-x="576" 
d="M512 246h-205v-166h-38v166h-205v38h205v166h38v-166h205v-38zM512 0h-448v38h448v-38z" />
    <glyph glyph-name="twosuperior" unicode="&#xb2;" horiz-adv-x="170" 
d="M106 0h-42v700h42v-700z" />
    <glyph glyph-name="threesuperior" unicode="&#xb3;" horiz-adv-x="222" 
d="M141 608c0 -20 -10 -30 -30 -30s-30 10 -30 30s10 30 30 30s30 -10 30 -30zM130 0h-38v474h38v-474z" />
    <glyph glyph-name="acute" unicode="&#xb4;" horiz-adv-x="318" 
d="M308 438l-114 0.000976562c-42.667 0 -70.667 -11 -84 -33c-8 -13.333 -12 -38.333 -12 -75v-330h-38v353c0 39.333 9.66699 68.666 29 87.999c22 22 54.667 33 98 33h83v42h38v-78z" />
    <glyph glyph-name="mu" unicode="&#xb5;" horiz-adv-x="466" 
d="M406 0l-38 -0.000976562v73c-13.333 -24 -33.5 -43.833 -60.5 -59.5s-55.167 -23.5 -84.5 -23.5c-24.667 0 -48.667 6.5 -72 19.5s-43 31.167 -59 54.5v-240h-38v650h38v-307c0 -37.333 13.5 -70.166 40.5 -98.499s58.833 -42.5 95.5 -42.5c36 0 66 10.667 90 32
c33.333 29.333 50 75 50 137v279h38v-474z" />
    <glyph glyph-name="paragraph" unicode="&#xb6;" horiz-adv-x="478" 
d="M414 -90h-38v754h-121v-754h-38v403c-52.667 6 -95.667 27.333 -129 64s-50 80 -50 130c0 48 14 88.667 42 122c39.333 47.333 101.333 71 186 71h148v-790z" />
    <glyph glyph-name="cedilla" unicode="&#xb8;" horiz-adv-x="562" 
d="M404 592c0 -9.33301 -3.33301 -17.333 -10 -24s-14.667 -10 -24 -10s-17.333 3.33301 -24 10s-10 14.667 -10 24s3.33301 17.333 10 24s14.667 10 24 10s17.333 -3.33301 24 -10s10 -14.667 10 -24zM226 592c0 -9.33301 -3.33301 -17.333 -10 -24s-14.667 -10 -24 -10
s-17.333 3.33301 -24 10s-10 14.667 -10 24s3.33301 17.333 10 24s14.667 10 24 10s17.333 -3.33301 24 -10s10 -14.667 10 -24zM528 227c0 -64.667 -23 -120.331 -69 -166.998s-103 -70 -171 -70c-72.667 0 -133.167 23.167 -181.5 69.5s-72.5 105.166 -72.5 176.499
c0 72 23.333 131.333 70 178s105.334 70 176.001 70c44 0 84.167 -10.167 120.5 -30.5s65.833 -48.833 88.5 -85.5l-337 -230l-22 31l305 207c-8.66699 11.333 -18.334 21 -29.001 29c-36.667 28.667 -78.667 43 -126 43c-60 0 -109.333 -20.667 -148 -62s-58 -92 -58 -152
c0 -57.333 19.667 -106.333 59 -147s88.333 -61 147 -61s108 19.667 148 59s60 86.666 60 141.999h40z" />
    <glyph glyph-name="onesuperior" unicode="&#xb9;" horiz-adv-x="987" 
d="M919 557c0 -39.333 -14 -73 -42 -101s-62 -42 -102 -42c-39.333 0 -73.166 13.833 -101.499 41.5s-42.5 61.5 -42.5 101.5c0 39.333 14 73 42 101s62 42 102 42c39.333 0 73.166 -13.833 101.499 -41.5s42.5 -61.5 42.5 -101.5zM919 302h-288v38h288v-38zM543 50
c0 -20.667 -5.16504 -35.833 -15.498 -45.5s-22.5 -14.5 -36.5 -14.5c-18.667 0 -32.667 5 -42 15c-4.66699 4.66699 -12 18 -22 40l-276 586l-13 25.5c-4.66699 9 -10 13.5 -16 13.5c-8 0 -12 -6 -12 -18v-652h-42v652c0 12.667 2.33301 23.334 7 32.001
c9.33301 17.333 25.666 26 48.999 26c19.333 0 33.666 -7 42.999 -21c4 -6 9.66699 -16.667 17 -32l276 -584c4 -8.66699 8.33301 -17.334 13 -26.001s10 -13 16 -13c8 0 12 6 12 18v648h42v-650zM883.002 557.001c0 30.667 -10.5 57.167 -31.5 79.5s-46.5 33.5 -76.5 33.5
c-29.333 0 -54.666 -11.333 -75.999 -34s-32 -49 -32 -79c0 -30.667 10.5 -57.167 31.5 -79.5s46.5 -33.5 76.5 -33.5c29.333 0 54.666 11.333 75.999 34s32 49 32 79z" />
    <glyph glyph-name="ordmasculine" unicode="&#xba;" horiz-adv-x="380" 
d="M346 0l-57.998 -0.000976562c-41.333 0 -73.666 3.33301 -96.999 10c-38.667 10.667 -72.334 32 -101.001 64c-22.667 24.667 -38.334 53.667 -47.001 87c-6 22.667 -9 47.667 -9 75c0 56.667 13.333 104.667 40 144c19.333 28.667 44.666 51 75.999 67
c22 11.333 42.667 18.666 62 21.999s42 5 68 5h17h49v-36h-59c-34 0 -58.667 -1.66699 -74 -5c-28 -6 -53.667 -19.667 -77 -41c-18 -16 -32.333 -34.667 -43 -56c-12.667 -24.667 -19 -51 -19 -79h272v-36h-272c0 -19.333 3 -37.666 9 -54.999s13.333 -32.333 22 -45
c22 -33.333 50.333 -56.666 85 -69.999c26 -10 56 -15 90 -15h66v-36z" />
    <glyph glyph-name="guillemotright" unicode="&#xbb;" horiz-adv-x="389" 
d="M342 237l-120 -155h-47l120 155l-120 155h47zM219 237l-120 -155h-47l120 155l-120 155h47z" />
    <glyph glyph-name="onequarter" unicode="&#xbc;" horiz-adv-x="222" 
d="M141 608c0 -20 -10 -30 -30 -30s-30 10 -30 30s10 30 30 30s30 -10 30 -30zM130 -71c0 -47.333 -14.667 -85.333 -44 -114s-67.333 -43 -114 -43h-22v36h22c34 0 61.667 9.66699 83 29c24.667 22 37 52.667 37 92v545h38v-545z" />
    <glyph glyph-name="onehalf" unicode="&#xbd;" horiz-adv-x="558" 
d="M514 177c0 -20.667 -2.16406 -39.333 -6.49707 -56s-11.833 -32.334 -22.5 -47.001c-25.333 -35.333 -61.666 -57.666 -108.999 -66.999c-23.333 -4.66699 -68.333 -7 -135 -7h-197v38h197h28c42.667 0 76 3 100 9c35.333 8.66699 61.666 25 78.999 49
c6.66699 9.33301 12 21 16 35s6 27.333 6 40c0 36.667 -10.667 67.334 -32 92.001c-12.667 14 -30.334 26.667 -53.001 38c-28 14 -66.667 27.667 -116 41c-54 15.333 -92.667 28.666 -116 39.999c-46 22.667 -77.667 52 -95 88
c-4.66699 11.333 -8.16699 22.666 -10.5 33.999s-3.5 24.333 -3.5 39c0 34.667 9.66699 65.334 29 92.001c16.667 22 37.5 38.333 62.5 49s66.5 16 124.5 16h214v-38h-214c-32 0 -56.5 -1 -73.5 -3s-33.833 -8.66699 -50.5 -20c-13.333 -8.66699 -24 -19.667 -32 -33
c-10.667 -17.333 -16 -38.333 -16 -63c0 -14 1.66699 -27.5 5 -40.5s9 -25.167 17 -36.5c14 -20 38 -37.333 72 -52c23.333 -10 58.166 -21.167 104.499 -33.5s81.166 -23.5 104.499 -33.5c38 -16 66.333 -35.333 85 -58c11.333 -14 20.5 -31 27.5 -51
s10.5 -40.333 10.5 -61z" />
    <glyph glyph-name="threequarters" unicode="&#xbe;" horiz-adv-x="444" 
d="M407 122c0 -34 -11.666 -61.666 -34.999 -82.999c-28.667 -26 -72.334 -39 -131.001 -39h-203v36h212c40 0 69.167 6.83301 87.5 20.5s27.5 33.5 27.5 59.5c0 34 -15.333 60 -46 78c-20 11.333 -57.833 23.166 -113.5 35.499s-92.5 23.5 -110.5 33.5
c-38.667 20.667 -58 52.667 -58 96c0 32.667 11.333 60 34 82s51.667 33 87 33h213v-36h-210c-24.667 0 -44.5 -7.5 -59.5 -22.5s-22.5 -33.5 -22.5 -55.5c0 -32 15.667 -55.333 47 -70c13.333 -6.66699 46.333 -15.667 99 -27c62 -14 104.333 -27.667 127 -41
c36.667 -22 55 -55.333 55 -100z" />
    <glyph glyph-name="questiondown" unicode="&#xbf;" horiz-adv-x="222" 
d="M224 592c0 -9.33301 -3.33301 -17.333 -10 -24s-14.667 -10 -24 -10s-17.333 3.33301 -24 10s-10 14.667 -10 24s3.33301 17.333 10 24s14.667 10 24 10s17.333 -3.33301 24 -10s10 -14.667 10 -24zM66 592c0 -9.33301 -3.33301 -17.333 -10 -24s-14.667 -10 -24 -10
s-17.333 3.33301 -24 10s-10 14.667 -10 24s3.33301 17.333 10 24s14.667 10 24 10s17.333 -3.33301 24 -10s10 -14.667 10 -24zM130 0h-38v474h38v-474z" />
    <glyph glyph-name="Agrave" unicode="&#xc0;" horiz-adv-x="610" 
d="M546 0l-42 0.000976562v341h-358v38h358v39c0 72.667 -7.33301 124 -22 154s-38 54.667 -70 74c-15.333 8.66699 -32 15.167 -50 19.5s-37 6.5 -57 6.5c-42 0 -77.667 -8.66699 -107 -26c-40 -24 -66.333 -57 -79 -99c-8.66699 -28.667 -13 -71.667 -13 -129v-418h-42
v418c0 60.667 4.33301 106 13 136c15.333 53.333 47.666 94.666 96.999 123.999c17.333 10 37.833 17.833 61.5 23.5s46.834 8.5 69.501 8.5c24.667 0 47.667 -2.5 69 -7.5s42 -13.167 62 -24.5c48 -28.667 80 -69.667 96 -123c9.33301 -31.333 14 -77 14 -137v-418z" />
    <glyph glyph-name="Aacute" unicode="&#xc1;" horiz-adv-x="594" 
d="M530 232c0 -35.333 -5.5 -67.1699 -16.5 -95.5029s-26.667 -53.166 -47 -74.499s-46.166 -38.666 -77.499 -51.999s-68 -20 -110 -20c-43.333 0 -82.333 10.333 -117 31c-38.667 23.333 -65.667 55 -81 95c-11.333 29.333 -17 65.333 -17 108v476h377v-38h-335v-440
c0 -40.667 4.33301 -72 13 -94c14 -36 41 -63.333 81 -82c25.333 -12 52 -18 80 -18c29.333 0 57.5 4.5 84.5 13.5s49.833 22.833 68.5 41.5c35.333 35.333 53 85 53 149c0 22.667 -3.5 44.167 -10.5 64.5s-18 38.5 -33 54.5s-32.5 28.667 -52.5 38
c-25.333 12 -54.333 18 -87 18c-27.333 0 -54.333 -3.16699 -81 -9.5s-52 -15.166 -76 -26.499v39c23.333 10.667 48.666 19.167 75.999 25.5s55 9.5 83 9.5c34 0 65 -5.16699 93 -15.5s53.667 -27.833 77 -52.5c18.667 -20 32.5 -42 41.5 -66s13.5 -50.333 13.5 -79z" />
    <glyph glyph-name="Acircumflex" unicode="&#xc2;" 
d="M522 188c0 -31.333 -6.33301 -60.001 -19 -86.001c-20.667 -42 -52.667 -71 -96 -87c-26.667 -10 -58.334 -15 -95.001 -15h-166v38h142c37.333 0 67 3.33301 89 10c35.333 10.667 62 30.667 80 60c14 22.667 21 50 21 82c0 16 -1.83301 31.333 -5.5 46
s-9.16699 28.334 -16.5 41.001c-18 29.333 -42.667 50 -74 62c-21.333 8 -47.333 12 -78 12h-158v38h102c36.667 0 65.667 2.66699 87 8c36.667 9.33301 64.667 27 84 53c8.66699 12 15 25.667 19 41s6 31 6 47c0 55.333 -25.667 94.666 -77 117.999
c-10.667 5.33301 -23.5 9.33301 -38.5 12s-29.167 4 -42.5 4c-18 0 -35.167 -1.66699 -51.5 -5s-31.833 -9.33301 -46.5 -18c-33.333 -19.333 -56.333 -46.666 -69 -81.999c-8.66699 -24 -13 -55 -13 -93v-474h-42v474c0 42 4.66699 76.667 14 104
c15.333 44 43.333 78 84 102c16.667 10 36 17.5 58 22.5s44.333 7.5 67 7.5c21.333 0 40.5 -1.83301 57.5 -5.5s34.167 -9.83398 51.5 -18.501c26.667 -14 47.667 -31.667 63 -53c19.333 -26.667 29 -58.334 29 -95.001c0 -25.333 -4.5 -49.5 -13.5 -72.5
s-21.667 -42 -38 -57s-34.833 -26.167 -55.5 -33.5c18.667 -3.33301 36.334 -9.66602 53.001 -18.999c26.667 -15.333 48 -37.666 64 -66.999c8 -14.667 14 -31 18 -49s6 -35.333 6 -52z" />
    <glyph glyph-name="Atilde" unicode="&#xc3;" horiz-adv-x="422" 
d="M426 662h-128.001c-39.333 0 -65.333 -1 -78 -3c-31.333 -4.66699 -55.666 -16 -72.999 -34s-28.5 -39 -33.5 -63s-7.5 -51 -7.5 -81v-481h-42v481c0 40.667 2.66699 72.334 8 95.001c8.66699 35.333 25.334 63.666 50.001 84.999c19.333 16 41.666 26.5 66.999 31.5
s54.333 7.5 87 7.5h22h128v-38z" />
    <glyph glyph-name="Adieresis" unicode="&#xc4;" horiz-adv-x="627" 
d="M637 -142l-41.999 -0.000976562v142h-563v-142h-42v180h515v624h-57c-54 0 -97 -3.66699 -129 -11c-56 -12.667 -100.667 -38 -134 -76c-28 -31.333 -46.333 -70.666 -55 -117.999c-5.33301 -28.667 -8 -72.667 -8 -132v-247h-42v247c0 62.667 2.33301 107.334 7 134.001
c8.66699 49.333 28 92.666 58 129.999c37.333 46 85.666 77.333 144.999 94c40 11.333 92.667 17 158 17h99v-662h90v-180z" />
    <glyph glyph-name="Aring" unicode="&#xc5;" horiz-adv-x="462" 
d="M428 0l-156.999 0.00292969c-44.667 0 -79.667 3.66699 -105 11c-38 11.333 -69.333 33.333 -94 66c-11.333 15.333 -20 31.666 -26 48.999c-8 22 -12 46.333 -12 73c0 34.667 6.66699 65.667 20 93c8.66699 17.333 19.667 32.666 33 45.999
c17.333 17.333 37.333 30.666 60 39.999c-32 17.333 -55.667 40.333 -71 69s-23 59 -23 91c0 22.667 4.16699 44.667 12.5 66s20.5 39.333 36.5 54c20.667 18.667 47.667 31 81 37c19.333 3.33301 48.666 5 87.999 5h157v-38h-157h-35c-28 0 -49.5 -2.83301 -64.5 -8.5
s-28.833 -14.334 -41.5 -26.001s-21.334 -25 -26.001 -40s-7 -30.833 -7 -47.5c0 -22 3.66699 -41.667 11 -59c15.333 -35.333 39.333 -59.666 72 -72.999c21.333 -8.66699 48.333 -13 81 -13h167v-38h-167c-33.333 0 -61.666 -4 -84.999 -12
c-41.333 -14 -70 -40.333 -86 -79c-4 -9.33301 -7 -20 -9 -32s-3 -23.667 -3 -35c0 -27.333 5.33301 -52 16 -74c17.333 -34.667 44.333 -59 81 -73c24.667 -9.33301 53.667 -14 87 -14h166v-38z" />
    <glyph glyph-name="AE" unicode="&#xc6;" horiz-adv-x="852" 
d="M802 700l-99.9971 -217.999c-12.667 -28 -25.334 -49 -38.001 -63c-16 -17.333 -36.333 -31 -61 -41c47.333 -4 86.666 -20 117.999 -48c44.667 -40 67 -100.333 67 -181v-104c0 -7.33301 0.833008 -14.666 2.5 -21.999s3.83398 -15 6.50098 -23h-44
c-2 10.667 -3.66699 20.667 -5 30s-2 16.666 -2 21.999v97c0 78.667 -24 134 -72 166c-32 21.333 -76.667 32 -134 32h-93v-347h-42v347h-93c-57.333 0 -102 -10.667 -134 -32c-48 -32 -72 -87.333 -72 -166v-97c0 -7.33301 -0.5 -14.333 -1.5 -21s-2.83301 -17 -5.5 -31
h-44c1.33301 3.33301 3.16602 10.5 5.49902 21.5s3.5 18.833 3.5 23.5v104c0 80.667 22.333 141 67 181c31.333 28 70.666 44 117.999 48c-27.333 10 -49.333 25.667 -66 47c-10 12 -21 31 -33 57l-100 218h47l67 -152c16 -36.667 30.667 -65.334 44 -86.001
c8.66699 -13.333 17.334 -24.333 26.001 -33c14.667 -14.667 31.167 -25.667 49.5 -33s43.166 -11 74.499 -11h47v315h42v-315h47c24.667 0 44.667 2 60 6c24 6 45 18 63 36c12 12 23.5 27.667 34.5 47s23.167 44 36.5 74l67 152h47z" />
    <glyph glyph-name="Ccedilla" unicode="&#xc7;" horiz-adv-x="462" 
d="M428 199c0 -25.333 -3.66504 -48.332 -10.998 -68.999s-16.333 -38.334 -27 -53.001c-24.667 -32.667 -55.334 -54.667 -92.001 -66c-23.333 -7.33301 -54.666 -11 -93.999 -11h-170v38h170c30.667 0 55.334 3 74.001 9c27.333 8.66699 50.666 24.667 69.999 48
c11.333 13.333 20.166 28.666 26.499 45.999s9.5 36.666 9.5 57.999c0 26 -4 48.333 -12 67c-16 38.667 -44.333 65 -85 79c-22.667 8 -51.334 12 -86.001 12h-127v38h127c32 0 58.667 4.33301 80 13c34 13.333 58.333 37.666 73 72.999c7.33301 17.333 11 37 11 59
c0 13.333 -0.833008 24.5 -2.5 33.5s-5.16699 18.167 -10.5 27.5c-14.667 27.333 -37.667 45.333 -69 54c-16.667 4.66699 -43 7 -79 7h-170v38h170c44.667 0 78.667 -3.66699 102 -11c36 -11.333 63.667 -33.666 83 -66.999c6.66699 -10.667 11.667 -23.667 15 -39
s5 -30.333 5 -45c0 -34.667 -8.5 -66.167 -25.5 -94.5s-39.833 -50.166 -68.5 -65.499c22 -8.66699 41.667 -21.667 59 -39c14 -14 25.333 -29.667 34 -47c6.66699 -13.333 11.667 -28.166 15 -44.499s5 -32.5 5 -48.5z" />
    <glyph glyph-name="Egrave" unicode="&#xc8;" horiz-adv-x="606" 
d="M542 0l-42.002 -0.000976562v630c0 10.667 -0.5 19.5 -1.5 26.5s-4.16699 10.833 -9.5 11.5c-8 1.33301 -16.333 -7 -25 -25c-5.33301 -11.333 -8.66602 -19 -9.99902 -23l-256 -547c-14 -30.667 -28 -52.167 -42 -64.5s-28 -18.5 -42 -18.5
c-14.667 0 -26 5.33301 -34 16c-10.667 14 -16 36.333 -16 67v627h42v-652c0 -10.667 4 -16 12 -16c5.33301 0 10 2.66699 14 8s10.667 18 20 38l268 560c12.667 26.667 21.334 43.334 26.001 50.001c11.333 14.667 26 22 44 22c22 0 37 -10 45 -30
c4.66699 -12 7 -29.667 7 -53v-627z" />
    <glyph glyph-name="Eacute" unicode="&#xc9;" horiz-adv-x="618" 
d="M459 810c-9.33301 -30.667 -27.1689 -55 -53.502 -73s-58.5 -27 -96.5 -27s-70.167 9 -96.5 27s-44.166 42.333 -53.499 73h42c6.66699 -19.333 19.834 -34.5 39.501 -45.5s42.5 -16.5 68.5 -16.5c26.667 0 49.5 5.16699 68.5 15.5s32.167 25.833 39.5 46.5h42z
M547.997 0l-42.001 -0.00292969v619c0.666992 10.667 1 18.334 1 23.001c0 7.33301 -0.666992 13.5 -2 18.5s-4.33301 7.5 -9 7.5c-6 0 -11.167 -2.66699 -15.5 -8s-11.166 -18.666 -20.499 -39.999l-255 -547c-10.667 -23.333 -21.667 -41.666 -33 -54.999
c-16 -18.667 -33 -28 -51 -28c-20 0 -33.5 7.83301 -40.5 23.5s-10.5 35.5 -10.5 59.5v627h42v-620c-0.666992 -10 -1 -17.667 -1 -23c0 -6 0.666992 -11.667 2 -17s5.33301 -8 12 -8c8 0 14 4.66699 18 14l283 592c10.667 22.667 17 35.667 19 39
c13.333 22 30.333 33 51 33c21.333 0 36 -9.33301 44 -28c5.33301 -12.667 8 -31 8 -55v-627z" />
    <glyph glyph-name="Ecircumflex" unicode="&#xca;" 
d="M526 700l-99.999 -217.999c-15.333 -33.333 -31.666 -58.333 -48.999 -75c-14.667 -14 -31.334 -23.667 -50.001 -29c42.667 0 79.667 -13.333 111 -40c49.333 -42 74 -110.333 74 -205v-88c0 -8 0.833008 -16.167 2.5 -24.5s3.5 -15.166 5.5 -20.499h-43
c-2 10.667 -3.66699 20.667 -5 30s-2 16.666 -2 21.999v79c0 88 -23 148.667 -69 182c-31.333 22.667 -77 34 -137 34h-158v-347h-42v700h42v-315h112c47.333 0 82.666 9 105.999 27c28 21.333 57.333 66.666 88 135.999l67 152h47z" />
    <glyph glyph-name="Edieresis" unicode="&#xcb;" horiz-adv-x="601" 
d="M537 0h-42.002v662h-57c-51.333 0 -93.666 -4.33301 -126.999 -13c-50 -12.667 -91.167 -36 -123.5 -70s-53.833 -74.667 -64.5 -122c-7.33301 -32.667 -11 -77.667 -11 -135v-322h-122v38h80v284c0 68 3.33301 117 10 147c12 53.333 37.5 99.5 76.5 138.5
s85.167 65.167 138.5 78.5c36.667 9.33301 84.334 14 143.001 14h99v-700z" />
    <glyph glyph-name="Igrave" unicode="&#xcc;" horiz-adv-x="868" 
d="M804 0h-41.999l-87 639l-2 14c-2.66699 10 -6.66699 15 -12 15c-4 0 -7.33301 -2 -10 -6s-5.66699 -11.667 -9 -23l-167 -570c-8 -27.333 -14.333 -45 -19 -53c-10 -17.333 -23.333 -26 -40 -26c-18.667 0 -33.334 11.667 -44.001 35c-3.33301 8 -8.33301 22.667 -15 44
l-168 570c-2 8.66699 -4.33301 15.667 -7 21s-6.33398 8 -11.001 8c-3.33301 0 -6.16602 -3 -8.49902 -9s-4.16602 -12.667 -5.49902 -20l-87 -639h-42l87 636c3.33301 23.333 7 39 11 47c9.33301 18 24.666 27 45.999 27c18 0 31.667 -8 41 -24
c4 -7.33301 11.333 -28 22 -62l168 -573c1.33301 -5.33301 2.83301 -10.5 4.5 -15.5s4.5 -7.5 8.5 -7.5c3.33301 0 6.16602 3.16699 8.49902 9.5s3.83301 10.833 4.5 13.5l168 573l15 49c10 24.667 26 37 48 37c16.667 0 29.334 -5 38.001 -15s15 -29.667 19 -59z" />
    <glyph glyph-name="Iacute" unicode="&#xcd;" horiz-adv-x="600" 
d="M536 0h-42v347h-388v-347h-42v700h42v-315h388v315h42v-700z" />
    <glyph glyph-name="Icircumflex" unicode="&#xce;" horiz-adv-x="776" 
d="M742 350c0 -98 -34.833 -182.502 -104.5 -253.502s-153.167 -106.5 -250.5 -106.5c-98 0 -181.333 35.333 -250 106s-103 155.334 -103 254.001s34.333 183.334 103 254.001s152 106 250 106c97.333 0 180.833 -35.5 250.5 -106.5s104.5 -155.5 104.5 -253.5z
M698 349.998c0 87.333 -29.667 162.333 -89 225c-61.333 64.667 -135.333 97 -222 97s-159.834 -31.833 -219.501 -95.5s-89.5 -139.167 -89.5 -226.5s29.833 -162.833 89.5 -226.5s132.834 -95.5 219.501 -95.5s160.167 31.833 220.5 95.5s90.5 139.167 90.5 226.5z" />
    <glyph glyph-name="Idieresis" unicode="&#xcf;" horiz-adv-x="609" 
d="M545 0h-42v662h-397v-662h-42v700h481v-700z" />
    <glyph glyph-name="Eth" unicode="&#xd0;" horiz-adv-x="530" 
d="M496 495c0 -61.333 -17.334 -111 -52.001 -149c-39.333 -42.667 -96 -64 -170 -64h-131v38h131c54.667 0 98 14.333 130 43s48 71.334 48 128.001c0 57.333 -17.333 102.666 -52 135.999c-31.333 30 -71.666 45 -120.999 45c-48 0 -86.667 -13.667 -116 -41
c-38 -35.333 -57 -90 -57 -164v-467h-42v468c0 88 24 152.667 72 194c37.333 32 85.333 48 144 48c67.333 0 121 -22 161 -66c36.667 -40 55 -89.667 55 -149z" />
    <glyph glyph-name="Ntilde" unicode="&#xd1;" horiz-adv-x="500" 
d="M476 662l-73.001 0.00292969c-95.333 0 -172.333 -29.333 -231 -88s-88 -133.334 -88 -224.001c0 -96 32.333 -173 97 -231c60 -54 134 -81 222 -81h72v-38h-72c-103.333 0 -189 31.333 -257 94c-70.667 65.333 -106 150.666 -106 255.999
c0 91.333 28.333 169.666 85 234.999c66.667 76.667 159.334 115 278.001 115h73v-38z" />
    <glyph glyph-name="Ograve" unicode="&#xd2;" horiz-adv-x="444" 
d="M442 662h-199v-662h-42v662h-199v38h440v-38z" />
    <glyph glyph-name="Oacute" unicode="&#xd3;" horiz-adv-x="604" 
d="M458 267l-143 0.000976562c-74 0 -129 11 -165 33c-57.333 34.667 -86 99.667 -86 195v205h42v-201c0 -60.667 9.66699 -104.334 29 -131.001c30.667 -42 90.667 -63 180 -63h143v-38zM540 246.001c0 -72.667 -11.333 -126.333 -34 -161
c-37.333 -56.667 -108.333 -85 -213 -85h-187v38h187c86.667 0 145.667 22.333 177 67c18.667 26.667 28 64.667 28 114v481h42v-454z" />
    <glyph glyph-name="Ocircumflex" unicode="&#xd4;" horiz-adv-x="858" 
d="M794 390c0 -78.667 -25 -147.667 -75 -207c-57.333 -68 -133.666 -102 -228.999 -102v38c80.667 0 145.667 29.667 195 89c43.333 52 65 112.667 65 182c0 76 -26.333 140.333 -79 193s-120 79 -202 79h-19v-662h-42v81h-19c-94 0 -171.667 30 -233 90
s-92 133.333 -92 220c0 78.667 25 147.667 75 207c57.333 68 133.666 102 228.999 102v-38c-80.667 0 -145.667 -29.667 -195 -89c-43.333 -52 -65 -112.667 -65 -182c0 -76 26.333 -140.333 79 -193s120 -79 202 -79h19v659h42v-78h19c94 0 171.667 -30 233 -90
s92 -133.333 92 -220z" />
    <glyph glyph-name="Otilde" unicode="&#xd5;" horiz-adv-x="608" 
d="M592 0c-68 0 -128.001 22.333 -180.001 67s-88 102.334 -108 173.001c-20 -70 -56.167 -127.5 -108.5 -172.5s-112.166 -67.5 -179.499 -67.5v42c72 0 134.5 30.167 187.5 90.5s79.5 133.166 79.5 218.499s-26.667 158.333 -80 219s-115.666 91 -186.999 91v42
c68 0 128 -22.333 180 -67s88 -102.334 108 -173.001c20 70 56.167 127.5 108.5 172.5s112.166 67.5 179.499 67.5v-42c-72 0 -134.5 -30.167 -187.5 -90.5s-79.5 -133.5 -79.5 -219.5c0 -85.333 26.5 -158.166 79.5 -218.499s115.5 -90.5 187.5 -90.5v-42z" />
    <glyph glyph-name="Odieresis" unicode="&#xd6;" horiz-adv-x="622" 
d="M542 78h-42v622h42v-622zM632 -142h-41.999v142h-294c-38.667 0 -68.667 2.66699 -90 8c-33.333 8 -61.833 24.333 -85.5 49s-39 52 -46 82s-10.5 64.333 -10.5 103v458h42v-458c0 -30 2 -55 6 -75c6.66699 -34.667 19.5 -62.167 38.5 -82.5s45.167 -33.833 78.5 -40.5
c19.333 -4 46.666 -6 81.999 -6h321v-180z" />
    <glyph glyph-name="multiply" unicode="&#xd7;" horiz-adv-x="580" 
d="M516 0l-42 0.000976562v267h-177c-35.333 0 -65 1.5 -89 4.5s-45.667 9.16699 -65 18.5c-42 20 -71 53.333 -87 100c-10.667 31.333 -16 72 -16 122v188h42v-194c0 -40.667 3.66699 -72.334 11 -95.001c12 -38 34.667 -66 68 -84c15.333 -8 34.333 -13.667 57 -17
s45.667 -5 69 -5h187v395h42v-700z" />
    <glyph glyph-name="Oslash" unicode="&#xd8;" horiz-adv-x="944" 
d="M493 78h-42v622h42v-622zM880 0h-584.001c-67.333 0 -118.666 13 -153.999 39c-52 38 -78 106 -78 204v457h42v-458c0 -64 10 -110.333 30 -139c30 -43.333 88.333 -65 175 -65h527v662h42v-700z" />
    <glyph glyph-name="Ugrave" unicode="&#xd9;" horiz-adv-x="960" 
d="M880 78h-42v622h42v-622zM493 78h-42v622h42v-622zM970 -142h-42v142h-632c-68 0 -119.333 12.667 -154 38c-52 38 -78 106 -78 204v458h42v-458c0 -88 23.333 -147 70 -177c28 -18 73.333 -27 136 -27h658v-180z" />
    <glyph glyph-name="Uacute" unicode="&#xda;" horiz-adv-x="632" 
d="M592 239c0 -66.667 -19.333 -122.999 -58 -168.999c-44.667 -53.333 -107 -80 -187 -80c-70 0 -125 21 -165 63s-60 102 -60 180v429h-132v38h174v-468c0 -72.667 19 -126.334 57 -161.001c31.333 -28.667 73.333 -43 126 -43c58.667 0 106.834 18.5 144.501 55.5
s56.5 85.833 56.5 146.5c0 55.333 -16.833 100.5 -50.5 135.5s-76.834 52.5 -129.501 52.5c-29.333 0 -58 -3.83301 -86 -11.5s-54 -19.5 -78 -35.5v42c25.333 15.333 51.5 26.333 78.5 33s55.5 10 85.5 10c66.667 0 120.667 -20.667 162 -62s62 -93 62 -155z" />
    <glyph glyph-name="Ucircumflex" unicode="&#xdb;" horiz-adv-x="719" 
d="M655 0h-42v700h42v-700zM534 233c0 -65.333 -18.6699 -120.001 -56.0029 -164.001c-44.667 -52.667 -107.667 -79 -189 -79c-70 0 -125 21 -165 63s-60 102 -60 180v467h42v-468c0 -78.667 22.333 -135 67 -169c30.667 -23.333 69.334 -35 116.001 -35
c55.333 0 101.333 15.667 138 47c42 36 63 87 63 153c0 60.667 -20 108.334 -60 143.001c-36.667 31.333 -82 47 -136 47c-51.333 0 -100.666 -15.667 -147.999 -47v42c46.667 28.667 97.334 43 152.001 43c72 0 129.333 -21.333 172 -64s64 -95.667 64 -159z" />
    <glyph glyph-name="Udieresis" unicode="&#xdc;" horiz-adv-x="583" 
d="M534 233c0 -65.333 -18.6699 -120.001 -56.0029 -164.001c-44.667 -52.667 -107.667 -79 -189 -79c-70 0 -125 21 -165 63s-60 102 -60 180v467h42v-468c0 -78.667 22.333 -135 67 -169c30.667 -23.333 69.334 -35 116.001 -35c55.333 0 101.333 15.667 138 47
c42 36 63 87 63 153c0 60.667 -20 108.334 -60 143.001c-36.667 31.333 -82 47 -136 47c-51.333 0 -100.666 -15.667 -147.999 -47v42c46.667 28.667 97.334 43 152.001 43c72 0 129.333 -21.333 172 -64s64 -95.667 64 -159z" />
    <glyph glyph-name="Yacute" unicode="&#xdd;" horiz-adv-x="494" 
d="M454 350c0 -105.333 -34.002 -189.999 -102.002 -253.999s-154.667 -96 -260 -96h-66v38h80c86 0 158.167 29.167 216.5 87.5s87.5 130.5 87.5 216.5h-384v36h384c0 75.333 -28 140.666 -84 195.999c-59.333 58.667 -132.666 88 -219.999 88h-80v38h80
c106.667 0 192.334 -35.333 257.001 -106c60.667 -66 91 -147.333 91 -244z" />
    <glyph glyph-name="Thorn" unicode="&#xde;" horiz-adv-x="964" 
d="M930 350c0 -98 -34.8311 -182.499 -104.498 -253.499s-153.834 -106.5 -252.501 -106.5c-90 0 -169.667 30.667 -239 92c-76.667 67.333 -115 153.333 -115 258h-113v-340h-42v700h42v-322h157v-38c0 -92.667 32.667 -169 98 -229c60 -55.333 130.667 -83 212 -83
c87.333 0 161.333 31.667 222 95s91 139 91 227c0 87.333 -30.167 162.833 -90.5 226.5s-134.5 95.5 -222.5 95.5c-70.667 0 -134 -23.333 -190 -70s-94.667 -108 -116 -184h-44c21.333 85.333 64 155.333 128 210s138 82 222 82c99.333 0 183.666 -35.333 252.999 -106
s104 -155.334 104 -254.001z" />
    <glyph glyph-name="germandbls" unicode="&#xdf;" horiz-adv-x="544" 
d="M480 0h-42.001v481c0 72.667 -19.667 125 -59 157c-28 22.667 -64.667 34 -110 34c-47.333 0 -87 -13 -119 -39c-36.667 -29.333 -55 -69.666 -55 -120.999c0 -55.333 21 -97.333 63 -126c38.667 -26 91 -39 157 -39h83v-38h-85c-84.667 0 -144 -22 -178 -66
c-23.333 -30 -35 -72 -35 -126v-65c0 -7.33301 -0.5 -14.333 -1.5 -21s-2.83301 -17 -5.5 -31h-43c2 5.33301 3.83301 12.166 5.5 20.499s2.5 16.5 2.5 24.5v74c0 48.667 7.33301 87.334 22 116.001c23.333 46 65 76.333 125 91c-43.333 8.66699 -78.666 27 -105.999 55
c-32 32.667 -48 74.667 -48 126c0 59.333 20.833 108 62.5 146s95.167 57 160.5 57s116 -20.333 152 -61s54 -96.334 54 -167.001v-482z" />
    <glyph glyph-name="agrave" unicode="&#xe0;" horiz-adv-x="586" 
d="M526 0l-38.0029 -0.000976562v189c0 40 -2 70.667 -6 92c-6.66699 34.667 -20.334 65.667 -41.001 93c-15.333 19.333 -32.666 35 -51.999 47c-30 18 -64.333 27 -103 27c-63.333 0 -115.666 -22.667 -156.999 -68c-38 -42 -57 -91.667 -57 -149
s20.167 -105.833 60.5 -145.5s91.5 -59.5 153.5 -59.5c32 0 60.5 5.5 85.5 16.5s50.5 28.833 76.5 53.5v-44c-21.333 -19.333 -45 -34.5 -71 -45.5s-55.667 -16.5 -89 -16.5c-67.333 0 -125.666 21.333 -174.999 64c-52.667 46 -79 105 -79 177
c0 66.667 22.333 124.334 67 173.001c48.667 53.333 111 80 187 80c42.667 0 80.667 -9 114 -27c26.667 -14 48.834 -32.167 66.501 -54.5s31.667 -50 42 -83s15.5 -76.5 15.5 -130.5v-189z" />
    <glyph glyph-name="aacute" unicode="&#xe1;" horiz-adv-x="613" 
d="M553 237c0 -20 -2.99902 -40.3369 -8.99902 -61.0039s-14.333 -40.667 -25 -60c-18 -32 -41.667 -58.667 -71 -80c-42.667 -30.667 -92.334 -46 -149.001 -46c-42.667 0 -80.667 9 -114 27c-26.667 14 -49.334 32.667 -68.001 56c-24 29.333 -40.333 64.333 -49 105
c-5.33301 25.333 -8 60 -8 104v110c0 56.667 6.33301 103.667 19 141c21.333 63.333 61.333 109.333 120 138c24 11.333 51.167 19 81.5 23s60.833 6 91.5 6h135v-36h-135c-34.667 0 -63.5 -1.66699 -86.5 -5s-45.833 -10.333 -68.5 -21
c-48 -23.333 -81.333 -61.666 -100 -114.999c-12.667 -35.333 -19 -79 -19 -131v-110c0 -36.667 2 -65.667 6 -87c6.66699 -36 20.334 -67.667 41.001 -95c16 -21.333 35.667 -38.333 59 -51c28 -15.333 60 -23 96 -23c44.667 0 84 11.333 118 34
c27.333 18 49.666 42 66.999 72c10 17.333 17.5 34.5 22.5 51.5s7.5 34.833 7.5 53.5c0 41.333 -9 78.833 -27 112.5s-43 58.834 -75 75.501c-15.333 8 -32.666 13.833 -51.999 17.5s-39.666 5.5 -60.999 5.5c-33.333 0 -64 -7 -92 -21c-24 -12 -47.333 -30 -70 -54v44
c20 21.333 45.5 37.833 76.5 49.5s63.167 17.5 96.5 17.5c43.333 0 83.166 -9.16699 119.499 -27.5s65.833 -47.166 88.5 -86.499s34 -83.666 34 -132.999z" />
    <glyph glyph-name="acircumflex" unicode="&#xe2;" horiz-adv-x="482" 
d="M448 129c0 -22 -5.66406 -42.334 -16.9971 -61.001c-18 -29.333 -44.667 -49 -80 -59c-21.333 -6 -51 -9 -89 -9h-124v36h126c43.333 0 74.166 3.83301 92.499 11.5s32.833 20.834 43.5 39.501c6.66699 12.667 10 26.667 10 42c0 16 -3.33301 29.667 -10 41
c-12 22 -30.5 36.5 -55.5 43.5s-54.167 10.5 -87.5 10.5h-119v36h117c28 0 48.333 2 61 6c20 6.66699 36 20 48 40c8 14 12 29 12 45c0 24 -8.66699 44.667 -26 62c-23.333 23.333 -57.333 35 -102 35c-46 0 -82.5 -13.167 -109.5 -39.5s-40.5 -65.5 -40.5 -117.5v-291h-38
v291c0 58.667 17.167 105.5 51.5 140.5s82.833 52.5 145.5 52.5c54.667 0 96 -15.333 124 -46c22 -24 33 -52.333 33 -85c0 -16.667 -3 -32.667 -9 -48c-10.667 -25.333 -28.334 -45 -53.001 -59c29.333 -5.33301 52.666 -19 69.999 -41s26 -47.333 26 -76z" />
    <glyph glyph-name="atilde" unicode="&#xe3;" horiz-adv-x="334" 
d="M340 438h-96c-30 0 -50 -1 -60 -3c-26 -5.33301 -45.833 -16 -59.5 -32s-21.5 -35.333 -23.5 -58s-3 -40.667 -3 -54v-291h-38v291c0 32.667 1.33301 56 4 70c5.33301 28 17 51.333 35 70c14.667 15.333 32.5 26.333 53.5 33s52.167 10 93.5 10h94v-36z" />
    <glyph glyph-name="adieresis" unicode="&#xe4;" horiz-adv-x="586" 
d="M526 32c0 -48 -3.00098 -83.999 -9.00098 -107.999c-10 -40 -30.333 -73.667 -61 -101c-23.333 -20.667 -53.333 -35.334 -90 -44.001c-24.667 -6 -49 -9 -73 -9c-23.333 0 -45.833 1.83301 -67.5 5.5s-46.5 10.5 -74.5 20.5l12 36
c21.333 -8.66699 42.5 -15.167 63.5 -19.5s40.833 -6.5 59.5 -6.5c28.667 0 53.334 2.66699 74.001 8c27.333 7.33301 50.333 19 69 35c24.667 21.333 41.334 50 50.001 86c6 24.667 9 57 9 97v160c0 34 -2.33301 63 -7 87c-7.33301 37.333 -21 69 -41 95
c-16.667 22 -36 39 -58 51c-28 15.333 -60 23 -96 23c-44.667 0 -84.334 -11.333 -119.001 -34c-27.333 -18 -49.333 -41.333 -66 -70c-19.333 -32.667 -29 -70.334 -29 -113.001c0 -42 11.333 -79.333 34 -112c19.333 -28.667 45.5 -51.334 78.5 -68.001
s66.833 -25 101.5 -25c35.333 0 68.666 8 99.999 24c22 11.333 42.667 26.666 62 45.999v-44c-22.667 -20.667 -47.667 -36.167 -75 -46.5s-55.666 -15.5 -84.999 -15.5c-67.333 0 -125.666 21.333 -174.999 64c-52.667 46 -79 105 -79 177
c0 66.667 22.333 124.334 67 173.001c48.667 53.333 111 80 187 80c42 0 79.667 -9 113 -27c25.333 -14 47.666 -32.667 66.999 -56c24 -29.333 40.333 -63.666 49 -102.999c6 -27.333 9 -62.666 9 -105.999v-160z" />
    <glyph glyph-name="aring" unicode="&#xe5;" horiz-adv-x="560" 
d="M526 227c0 -64.667 -23.002 -120.331 -69.002 -166.998s-102.333 -70 -169 -70c-72.667 0 -133.167 23.167 -181.5 69.5s-72.5 105.166 -72.5 176.499c0 72 23.333 131.333 70 178s105.334 70 176.001 70c43.333 0 83 -10.167 119 -30.5s65.333 -48.833 88 -85.5
l-337 -230l-21 29l305 209c-20.667 26 -45 44.5 -73 55.5s-55.667 16.5 -83 16.5c-35.333 0 -68.666 -8.33301 -99.999 -25s-56.333 -40.667 -75 -72c-20.667 -34 -31 -73 -31 -117c0 -57.333 19.667 -106.333 59 -147s88.333 -61 147 -61s108 19.667 148 59
s60 86.666 60 141.999h40z" />
    <glyph glyph-name="ae" unicode="&#xe6;" horiz-adv-x="630" 
d="M592 474l-79.9971 -138.998c-13.333 -22 -26.333 -40 -39 -54c-10 -10 -21 -19 -33 -27c21.333 0 40.833 -4.16699 58.5 -12.5s32.834 -19.5 45.501 -33.5c10.667 -13.333 18.667 -28 24 -44s8 -42 8 -78v-86h-38v90c0 28.667 -1.83301 48.667 -5.5 60
s-10.834 23.333 -21.501 36c-14 15.333 -29.833 25.166 -47.5 29.499s-37.167 6.5 -58.5 6.5h-71v-222h-38v222h-71c-22.667 0 -41.834 -1.66699 -57.501 -5s-30.334 -11.5 -44.001 -24.5s-22.334 -27.833 -26.001 -44.5s-5.5 -36 -5.5 -58v-90h-38v86
c0 34 1.83301 59.833 5.5 77.5s14.5 35.167 32.5 52.5c12 11.333 26.5 20.5 43.5 27.5s35.167 10.5 54.5 10.5c-10 6 -19 13 -27 21c-16 15.333 -31 35.333 -45 60l-80 139h46l56 -101c24 -42.667 47.333 -73.334 70 -92.001c18.667 -15.333 38 -23 58 -23h28v216h38v-216
h28c20 0 39 7.33301 57 22c23.333 18.667 47 49.667 71 93l56 101h46z" />
    <glyph glyph-name="ccedilla" unicode="&#xe7;" horiz-adv-x="408" 
d="M370 132c0 -15.333 -1.33105 -28.9932 -3.99805 -40.9932s-8 -23.667 -16 -35c-16.667 -24.667 -39 -41 -67 -49c-16.667 -4.66699 -42.667 -7 -78 -7h-167v37h169h14c22.667 0 39.667 1.66699 51 5c18 5.33301 32.667 15.666 44 30.999
c5.33301 7.33301 9.33301 16.5 12 27.5s4 21.5 4 31.5c0 18.667 -3.66699 34.334 -11 47.001c-10.667 19.333 -28 33 -52 41c-16.667 5.33301 -37.334 8 -62.001 8h-129v36h129c21.333 0 38 2 50 6c22.667 8 39 23 49 45c2.66699 5.33301 4.66699 11.666 6 18.999
s2 14.666 2 21.999c0 17.333 -5 33.166 -15 47.499s-21.833 23.666 -35.5 27.999s-31.834 6.5 -54.501 6.5h-15h-156v36h154c47.333 0 80.333 -4.5 99 -13.5s34 -23.833 46 -44.5c10 -16.667 15 -36.667 15 -60c0 -16.667 -3.66699 -33.334 -11 -50.001
c-4.66699 -9.33301 -11.334 -19.333 -20.001 -30s-18.667 -19.667 -30 -27c15.333 -4.66699 28.333 -11.834 39 -21.501s19.334 -20.834 26.001 -33.501c9.33301 -18 14 -38.667 14 -62z" />
    <glyph glyph-name="egrave" unicode="&#xe8;" horiz-adv-x="503" 
d="M443 0l-37.999 0.000976562v414c0 10.667 -1.66699 16 -5 16c-2.66699 0 -6.66699 -3.5 -12 -10.5s-9.33301 -13.167 -12 -18.5l-211 -331l-34 -54c-12.667 -17.333 -25 -26 -37 -26c-14 0 -23.167 5.16699 -27.5 15.5s-6.5 22.166 -6.5 35.499v433h38v-417
c0 -2 0.333008 -4 1 -6s2 -4.33301 4 -7c3.33301 2 5.66602 4 6.99902 6c5.33301 5.33301 11 13 17 23l211 331l34 54c12.667 17.333 25 26 37 26c14 0 23.667 -6.33301 29 -19c3.33301 -8 5 -18.667 5 -32v-433z" />
    <glyph glyph-name="eacute" unicode="&#xe9;" horiz-adv-x="503" 
d="M405 670c-10 -30.667 -25.002 -55.333 -45.002 -74c-28 -25.333 -64.333 -38 -109 -38c-44 0 -80 12.667 -108 38c-21.333 19.333 -36.666 44 -45.999 74h38c8.66699 -20 20 -36 34 -48c22 -18.667 49.333 -28 82 -28s59.667 9 81 27c14.667 12.667 26.334 29 35.001 49
h38zM442.998 0.000976562l-37.999 0.000976562v414c0 10.667 -1.66699 16 -5 16c-2.66699 0 -6.66699 -3.5 -12 -10.5s-9.33301 -13.167 -12 -18.5l-211 -331l-34 -54c-12.667 -17.333 -25 -26 -37 -26c-14 0 -23.167 5.16699 -27.5 15.5s-6.5 22.166 -6.5 35.499v433h38
v-417c0 -2 0.333008 -4 1 -6s2 -4.33301 4 -7c3.33301 2 5.66602 4 6.99902 6c5.33301 5.33301 11 13 17 23l211 331l34 54c12.667 17.333 25 26 37 26c14 0 23.667 -6.33301 29 -19c3.33301 -8 5 -18.667 5 -32v-433z" />
    <glyph glyph-name="ecircumflex" unicode="&#xea;" horiz-adv-x="444" 
d="M406 474l-69 -119.002c-17.333 -30 -31.833 -51.833 -43.5 -65.5s-24.834 -25.167 -39.501 -34.5c22 0 42 -4.33301 60 -13s32.333 -19.667 43 -33c14.667 -17.333 24.334 -38.666 29.001 -63.999c2.66699 -15.333 4 -38.666 4 -69.999v-75h-38v80
c0 22 -1.33301 41.667 -4 59s-9.16699 32.5 -19.5 45.5s-24.166 22.667 -41.499 29s-35.666 9.5 -54.999 9.5h-134v-223h-38v474h38v-215h78c13.333 0 25.666 3 36.999 9s21.833 13.833 31.5 23.5s19.667 21.667 30 36s20.166 29.833 29.499 46.5l56 100h46z" />
    <glyph glyph-name="edieresis" unicode="&#xeb;" horiz-adv-x="469" 
d="M409 0l-38 -0.000976562v438h-32c-26.667 0 -50.667 -2 -72 -6s-42.666 -11.333 -63.999 -22c-44 -23.333 -74.667 -59.333 -92 -108c-11.333 -32 -17 -72.667 -17 -122v-180h-104v36h66v144c0 46.667 3 82.667 9 108c9.33301 40.667 27.666 75.667 54.999 105
c24 26.667 54 46.834 90 60.501s79 20.5 129 20.5h70v-474z" />
    <glyph glyph-name="igrave" unicode="&#xec;" horiz-adv-x="606" 
d="M602 0h-45.001l-84 416l-4 19c-2 -1.33301 -3.66699 -2.66602 -5 -3.99902l-8 -27l-105 -340c-9.33301 -30.667 -14.666 -47.334 -15.999 -50.001c-8 -16 -18.667 -24 -32 -24c-10 0 -17.833 3.83301 -23.5 11.5s-13.834 28.5 -24.501 62.5l-106 340l-4 16l-3 11l-3 6
l-8 -28l-82 -409h-45l92 424c6 26 11.833 42.5 17.5 49.5s13.834 10.5 24.501 10.5c11.333 0 20 -4.33301 26 -13c4 -5.33301 8.33301 -15.333 13 -30l96 -309l21 -73c2 -7.33301 3.5 -12 4.5 -14s2.5 -4.66699 4.5 -8c0.666992 2 1 3.33301 1 4l8 18l21 73l96 309
c4.66699 15.333 8.66699 25.333 12 30c6 8.66699 15 13 27 13c14.667 0 25.334 -7 32.001 -21c1.33301 -3.33301 4.66602 -16.333 9.99902 -39z" />
    <glyph glyph-name="iacute" unicode="&#xed;" horiz-adv-x="487" 
d="M427 0h-38v244h-291v-244h-38v474h38v-194h291v194h38v-474z" />
    <glyph glyph-name="icircumflex" unicode="&#xee;" horiz-adv-x="584" 
d="M524 237c0 -68.667 -23.667 -127 -71 -175s-104.666 -72 -171.999 -72s-124.666 24 -171.999 72s-71 106.333 -71 175s23.667 127 71 175s104.666 72 171.999 72s124.666 -24 171.999 -72s71 -106.333 71 -175zM486 237c0 59.333 -19.667 109.333 -59 150s-88 61 -146 61
c-57.333 0 -105.833 -20.167 -145.5 -60.5s-59.5 -90.5 -59.5 -150.5c0 -59.333 19.667 -109.333 59 -150s88 -61 146 -61c57.333 0 105.833 20.167 145.5 60.5s59.5 90.5 59.5 150.5z" />
    <glyph glyph-name="idieresis" unicode="&#xef;" horiz-adv-x="485" 
d="M425 0h-38v279c0 36.667 -2.33301 63 -7 79c-8 28 -25.333 49.333 -52 64c-10.667 6 -24.5 10.167 -41.5 12.5s-33.833 3.5 -50.5 3.5h-21h-117v-438h-38v474h152c34 0 61 -1 81 -3s39.667 -8.33301 59 -19c31.333 -18 52.333 -44 63 -78c6.66699 -22 10 -53.667 10 -95
v-279z" />
    <glyph glyph-name="eth" unicode="&#xf0;" horiz-adv-x="587" 
d="M553 236c0 -48.667 -11.1641 -92.667 -33.4971 -132s-52.833 -69 -91.5 -89c-18.667 -10 -38.834 -16.833 -60.501 -20.5s-45.5 -5.5 -71.5 -5.5c-30 0 -57.667 4.83301 -83 14.5s-50.333 25.834 -75 48.501v44c28 -26 55.167 -44.333 81.5 -55s53.166 -16 80.499 -16
c46.667 0 86.334 9.33301 119.001 28c28 16 50.667 39 68 69c9.33301 16 16.333 34 21 54s7 40 7 60c0 18.667 -2.5 36.667 -7.5 54s-12.833 35 -23.5 53c-16 26.667 -35 48.334 -57 65.001c-36 26.667 -78.333 40 -127 40c-34.667 0 -66.334 -7.66699 -95.001 -23
c-24 -12.667 -44 -29.667 -60 -51c-19.333 -26 -32.666 -57.667 -39.999 -95c-4.66699 -24 -7 -53 -7 -87v-418h-38v418c0 43.333 2.66699 77.666 8 102.999c8.66699 41.333 25 76.666 49 105.999c19.333 24 41.666 42.667 66.999 56c33.333 18 71.666 27 114.999 27
s83.5 -9.16699 120.5 -27.5s67.833 -46.5 92.5 -84.5c27.333 -42 41 -87.333 41 -136z" />
    <glyph glyph-name="ntilde" unicode="&#xf1;" horiz-adv-x="412" 
d="M352 0h-67c-72 0 -131.167 21.5 -177.5 64.5s-69.5 99.5 -69.5 169.5c0 71.333 23.167 129.166 69.5 173.499s105.5 66.5 177.5 66.5h67v-36h-59c-72 0 -127.667 -21.667 -167 -65c-33.333 -37.333 -50 -83.666 -50 -138.999c0 -53.333 16.333 -98 49 -134
c38.667 -42.667 94.667 -64 168 -64h59v-36z" />
    <glyph glyph-name="ograve" unicode="&#xf2;" horiz-adv-x="358" 
d="M362 438h-164v-438h-38v438h-164v36h366v-36z" />
    <glyph glyph-name="oacute" unicode="&#xf3;" horiz-adv-x="504" 
d="M444 21c0 -45.333 -2.33203 -77.998 -6.99902 -97.998c-9.33301 -38.667 -29 -71.334 -59 -98.001c-20.667 -18 -44 -31.5 -70 -40.5s-53.333 -13.5 -82 -13.5c-23.333 0 -48.333 3 -75 9s-56.667 15.667 -90 29l13 39c19.333 -9.33301 38.666 -17 57.999 -23
c36.667 -12 69 -18 97 -18c30.667 0 59.667 7 87 21c40.667 21.333 67 50 79 86c7.33301 22 11 57.667 11 107v55c-12.667 -19.333 -28.334 -36 -47.001 -50c-16 -12 -33.667 -21 -53 -27s-39.666 -9 -60.999 -9c-24 0 -47.667 4 -71 12c-48 18 -80.667 50.667 -98 98
c-10.667 29.333 -16 71.666 -16 126.999v247h38v-245c0 -47.333 2.33301 -80 7 -98c9.33301 -36 30 -64 62 -84c21.333 -14 47.333 -21 78 -21c36 0 68 10.333 96 31s46.667 48 56 82c6 22 9 52 9 90v245h38v-453z" />
    <glyph glyph-name="ocircumflex" unicode="&#xf4;" horiz-adv-x="650" 
d="M616 237c0 -60 -20 -113.333 -60 -160c-44 -51.333 -100.667 -77 -170 -77v36c55.333 0 100.833 20.167 136.5 60.5s53.5 87.166 53.5 140.499c0 55.333 -18.667 101.666 -56 138.999c-42 41.333 -100 62 -174 62v-664h-38v226c-70.667 0 -130.334 17 -179.001 51
c-60.667 42.667 -91 104.667 -91 186c0 60 20 113.333 60 160c44 51.333 100.667 77 170 77v-36c-55.333 0 -100.833 -20.167 -136.5 -60.5s-53.5 -87.166 -53.5 -140.499c0 -55.333 18.667 -101.666 56 -138.999c42 -41.333 100 -62 174 -62v664h38v-226
c70.667 0 130.334 -17 179.001 -51c60.667 -42.667 91 -104.667 91 -186z" />
    <glyph glyph-name="otilde" unicode="&#xf5;" horiz-adv-x="444" 
d="M426 0h-10c-45.333 0 -86.333 14.667 -123 44c-32 25.333 -55.667 57.666 -71 96.999c-15.333 -38.667 -39 -71 -71 -97c-36.667 -29.333 -77.667 -44 -123 -44h-10v36h10c54.667 0 98.334 22.667 131.001 68c28.667 39.333 43 83.666 43 132.999s-14 93.333 -42 132
c-33.333 46 -77.333 69 -132 69h-10v36h10c45.333 0 86.333 -14.667 123 -44c32 -25.333 55.667 -57.666 71 -96.999c15.333 38.667 39 71 71 97c36.667 29.333 77.667 44 123 44h10v-36h-10c-54.667 0 -98.334 -22.667 -131.001 -68
c-28.667 -39.333 -43 -83.666 -43 -132.999s14 -93.333 42 -132c33.333 -46 77.333 -69 132 -69h10v-36z" />
    <glyph glyph-name="odieresis" unicode="&#xf6;" horiz-adv-x="526" 
d="M428 76h-38v398h38v-398zM516 -123l-37.999 0.000976562v123h-205h-17c-27.333 0 -50.333 1.33301 -69 4s-36.667 8.66699 -54 18c-31.333 18 -52.333 44 -63 78c-6.66699 22 -10 53.667 -10 95v279h38v-279c0 -46.667 4.66699 -79.334 14 -98.001s24.333 -33.667 45 -45
c11.333 -6 25.166 -10.167 41.499 -12.5s32.833 -3.5 49.5 -3.5h20h248v-159z" />
    <glyph glyph-name="divide" unicode="&#xf7;" horiz-adv-x="437" 
d="M377 0l-37.999 0.000976562v185h-88h-17c-27.333 0 -50.333 1.33301 -69 4s-36.667 8.66699 -54 18c-31.333 18 -52.333 44 -63 78c-6.66699 22 -10 53.667 -10 95v94h38v-94c0 -46.667 4.66699 -79.334 14 -98.001s24.333 -33.667 45 -45
c11.333 -6 25.166 -10.167 41.499 -12.5s32.833 -3.5 49.5 -3.5h20h93v253h38v-474z" />
    <glyph glyph-name="oslash" unicode="&#xf8;" horiz-adv-x="714" 
d="M376 77h-38v397h38v-397zM654 0h-381h-17c-27.333 -0 -50.333 1.33301 -69 4s-36.667 8.66699 -54 18c-31.333 18 -52.333 44 -63 78c-6.66699 22 -10 53.667 -10 95v279h38v-279c0 -36 2.66699 -63 8 -81c8 -28 25 -48.667 51 -62c21.333 -10.667 60 -16 116 -16h343
v438h38v-474z" />
    <glyph glyph-name="ugrave" unicode="&#xf9;" horiz-adv-x="752" 
d="M654 77h-38v397h38v-397zM376 77h-38v397h38v-397zM742 -123l-37.999 0.000976562v123h-431h-17c-27.333 0 -50.333 1.33301 -69 4s-36.667 8.66699 -54 18c-31.333 18 -52.333 44 -63 78c-6.66699 22 -10 53.667 -10 95v279h38v-279
c0 -46.667 4.66699 -79.334 14 -98.001s24.333 -33.667 45 -45c11.333 -6 25.166 -10.167 41.499 -12.5s32.833 -3.5 49.5 -3.5h20h474v-159z" />
    <glyph glyph-name="uacute" unicode="&#xfa;" horiz-adv-x="511" 
d="M477 165c0 -18 -1.5 -33.4961 -4.5 -46.4961s-8.5 -26.833 -16.5 -41.5c-12 -22 -29.333 -40.667 -52 -56c-30.667 -20.667 -68 -31 -112 -31c-28 0 -52.333 4 -73 12s-40 22 -58 42c-20 22.667 -33.333 49 -40 79c-4 18.667 -6 47 -6 85v230h-119v36h157v-279
c0 -32.667 3 -58.334 9 -77.001c10.667 -32.667 30.667 -57.334 60 -74.001c10.667 -6.66699 22 -11.334 34 -14.001s25 -4 39 -4c34 0 62.333 7.33301 85 22c18 11.333 32 26 42 44c5.33301 10.667 9.5 22 12.5 34s4.5 24.667 4.5 38c0 42 -15 74.667 -45 98
c-26.667 20.667 -59.667 31 -99 31c-16.667 0 -33.167 -2.33301 -49.5 -7s-33.833 -13.334 -52.5 -26.001v40c16 9.33301 33.167 16.5 51.5 21.5s34.5 7.5 48.5 7.5c50.667 0 93 -13.333 127 -40c38 -30 57 -71.333 57 -124z" />
    <glyph glyph-name="ucircumflex" unicode="&#xfb;" horiz-adv-x="576" 
d="M516 0h-38v474h38v-474zM422 165c0 -31.333 -7.66309 -60.3301 -22.9961 -86.9971s-35.333 -47.334 -60 -62.001c-28.667 -17.333 -62.667 -26 -102 -26c-16.667 0 -32.834 1.83301 -48.501 5.5s-30.167 9.16699 -43.5 16.5c-33.333 19.333 -56.666 47 -69.999 83
c-10 26.667 -15 60 -15 100v279h38v-279c0 -33.333 3 -59.333 9 -78c10.667 -32.667 30.667 -57.334 60 -74.001c10.667 -5.33301 22 -9.5 34 -12.5s25 -4.5 39 -4.5c15.333 0 28.666 1.16699 39.999 3.5s22.666 6.5 33.999 12.5c19.333 10 35.833 25.667 49.5 47
s20.5 46.333 20.5 75c0 23.333 -5.16699 44 -15.5 62s-24.833 33 -43.5 45c-24 14.667 -52.333 22 -85 22c-16.667 0 -33.167 -2.33301 -49.5 -7s-33.833 -13.334 -52.5 -26.001v40c14 8.66699 27 15 39 19c18.667 6.66699 39 10 61 10c37.333 0 70.666 -8 99.999 -24
c25.333 -14 45.666 -33.167 60.999 -57.5s23 -51.833 23 -82.5z" />
    <glyph glyph-name="udieresis" unicode="&#xfc;" horiz-adv-x="456" 
d="M422 165c0 -18 -1.49805 -33.4971 -4.49805 -46.4971s-8.5 -26.833 -16.5 -41.5c-12.667 -22.667 -30 -41.334 -52 -56.001c-30.667 -20.667 -68 -31 -112 -31c-27.333 0 -52.333 4.66699 -75 14c-44 18.667 -73.667 51 -89 97c-8.66699 26.667 -13 62.334 -13 107.001
v266h38v-279c0 -32.667 3 -58.334 9 -77.001c10.667 -32.667 30.667 -57.334 60 -74.001c10.667 -6.66699 22 -11.334 34 -14.001s25 -4 39 -4c34 0 62.333 7.33301 85 22c18 11.333 32 26 42 44c5.33301 10.667 9.5 22 12.5 34s4.5 24.667 4.5 38
c0 24 -5.33301 45.5 -16 64.5s-27.167 34.5 -49.5 46.5s-48.5 18 -78.5 18c-16.667 0 -33.167 -2.33301 -49.5 -7s-33.833 -13.334 -52.5 -26.001v40c16 9.33301 33.167 16.5 51.5 21.5s34.5 7.5 48.5 7.5c24.667 0 49.167 -4.16699 73.5 -12.5
s44.166 -19.666 59.499 -33.999s27.666 -31.5 36.999 -51.5s14 -42 14 -66z" />
    <glyph glyph-name="yacute" unicode="&#xfd;" horiz-adv-x="380" 
d="M346 236c0 -29.333 -2.66699 -54.0039 -8 -74.0039c-8.66699 -33.333 -24.667 -62.666 -48 -87.999c-28 -30.667 -61.333 -51.667 -100 -63c-25.333 -7.33301 -58 -11 -98 -11h-58v36h66c44.667 0 82 8.33301 112 25c24.667 13.333 45.667 33.333 63 60
c8.66699 12.667 16 27.334 22 44.001s9 35.334 9 56.001h-272v36h272c0 27.333 -5.83301 52.5 -17.5 75.5s-26.5 42.833 -44.5 59.5c-22 20 -47.667 33.333 -77 40c-17.333 4 -42 6 -74 6h-59v36h49c35.333 0 62.333 -1.16699 81 -3.5s40.667 -10.166 66 -23.499
c32 -16.667 57.333 -38.667 76 -66c26.667 -38.667 40 -87 40 -145z" />
    <glyph glyph-name="thorn" unicode="&#xfe;" horiz-adv-x="695" 
d="M661 238c0 -66.667 -23.334 -124.666 -70.001 -173.999s-104 -74 -172 -74c-38 0 -75.167 9.66699 -111.5 29s-66.333 47.333 -90 84s-35.5 76 -35.5 118h-84v-221h-38v474h38v-217h124c-0.666992 -4 -1 -8.33301 -1 -13v-10c0 -41.333 9.66699 -78 29 -110
s44.5 -56.333 75.5 -73s62.167 -25 93.5 -25c58 0 106.167 21.167 144.5 63.5s57.5 91.833 57.5 148.5c0 57.333 -19 106.666 -57 147.999s-85.667 62 -143 62c-49.333 0 -91.666 -14.167 -126.999 -42.5s-57.666 -64.5 -66.999 -108.5h-40
c11.333 56.667 39.166 102 83.499 136s94.5 51 150.5 51c68 0 125 -24 171 -72s69 -106 69 -174z" />
    <glyph glyph-name="ydieresis" unicode="&#xff;" horiz-adv-x="455" 
d="M395 0l-38 -0.00488281v269c0 65.333 -14 112.333 -42 141c-24.667 25.333 -59 38 -103 38c-46 0 -80.667 -11.333 -104 -34c-20 -19.333 -30 -44.666 -30 -75.999c0 -26 7.33301 -47.333 22 -64c22 -24.667 58 -37 108 -37h109v-36h-78
c-31.333 0 -53.333 -1.33301 -66 -4c-24 -5.33301 -42.667 -17 -56 -35c-8 -10.667 -13.167 -22.667 -15.5 -36s-3.5 -27.666 -3.5 -42.999v-83h-38v81c0 22 1 39.333 3 52s8 26.334 18 41.001c6.66699 9.33301 14 17.333 22 24s17.333 12.667 28 18
c-27.333 7.33301 -49.666 22.333 -66.999 45s-26 48.334 -26 77.001c0 39.333 13.333 72.333 40 99c31.333 31.333 76.666 47 135.999 47c50 0 89.667 -12 119 -36c41.333 -33.333 62 -88.666 62 -165.999v-282z" />
    <glyph glyph-name="OE" unicode="&#x152;" horiz-adv-x="1013" 
d="M964 233c0 -65.333 -18.6699 -120.001 -56.0029 -164.001c-44.667 -52.667 -107.667 -79 -189 -79c-70 0 -125 21 -165 63s-60 102 -60 180v114h-388v-347h-42v700h42v-315h388v315h42v-468c0 -78.667 22.333 -135 67 -169c30.667 -23.333 69.334 -35 116.001 -35
c55.333 0 101.333 15.667 138 47c42 36 63 87 63 153c0 60.667 -20 108.334 -60 143.001c-36.667 31.333 -82 47 -136 47c-51.333 0 -100.666 -15.667 -147.999 -47v42c46.667 28.667 97.334 43 152.001 43c72 0 129.333 -21.333 172 -64s64 -95.667 64 -159z" />
    <glyph glyph-name="oe" unicode="&#x153;" horiz-adv-x="785" 
d="M751 165c0 -18 -1.49805 -33.4971 -4.49805 -46.4971s-8.5 -26.833 -16.5 -41.5c-12.667 -22.667 -30 -41.334 -52 -56.001c-30.667 -20.667 -68 -31 -112 -31c-27.333 0 -52.333 4.66699 -75 14c-44 18.667 -73.667 51 -89 97c-8.66699 26.667 -13 62.334 -13 107.001
v36h-291v-244h-38v474h38v-194h291v194h38v-279c0 -32.667 3 -58.334 9 -77.001c10.667 -32.667 30.667 -57.334 60 -74.001c10.667 -6.66699 22 -11.334 34 -14.001s25 -4 39 -4c34 0 62.333 7.33301 85 22c18 11.333 32 26 42 44c5.33301 10.667 9.5 22 12.5 34
s4.5 24.667 4.5 38c0 24 -5.33301 45.5 -16 64.5s-27.167 34.5 -49.5 46.5s-48.5 18 -78.5 18c-16.667 0 -33.167 -2.33301 -49.5 -7s-33.833 -13.334 -52.5 -26.001v40c16 9.33301 33.167 16.5 51.5 21.5s34.5 7.5 48.5 7.5c24.667 0 49.167 -4.16699 73.5 -12.5
s44.166 -19.666 59.499 -33.999s27.666 -31.5 36.999 -51.5s14 -42 14 -66z" />
    <glyph glyph-name="Scaron" unicode="&#x160;" horiz-adv-x="1014" 
d="M965 233c0 -65.333 -18.6719 -120.001 -56.0049 -164.001c-44.667 -52.667 -107.667 -79 -189 -79c-70 0 -125 21 -165 63s-60 102 -60 180v429h-57c-51.333 0 -93.666 -4.33301 -126.999 -13c-50 -12.667 -91.167 -36 -123.5 -70s-53.833 -74.667 -64.5 -122
c-7.33301 -32.667 -11 -77.667 -11 -135v-322h-122v38h80v284c0 68 3.33301 117 10 147c12 53.333 37.5 99.5 76.5 138.5s85.167 65.167 138.5 78.5c36.667 9.33301 84.334 14 143.001 14h99v-468c0 -78.667 22.333 -135 67 -169c30.667 -23.333 69.334 -35 116.001 -35
c55.333 0 101.333 15.667 138 47c42 36 63 87 63 153c0 60.667 -20 108.334 -60 143.001c-36.667 31.333 -82 47 -136 47c-51.333 0 -100.666 -15.667 -147.999 -47v42c46.667 28.667 97.334 43 152.001 43c72 0 129.333 -21.333 172 -64s64 -95.667 64 -159z" />
    <glyph glyph-name="scaron" unicode="&#x161;" horiz-adv-x="747" 
d="M713 165c0 -18 -1.49805 -33.498 -4.49805 -46.498s-8.5 -26.833 -16.5 -41.5c-12.667 -22.667 -30 -41.334 -52 -56.001c-30.667 -20.667 -68 -31 -112 -31c-27.333 0 -52.333 4.66699 -75 14c-44 18.667 -73.667 51 -89 97c-8.66699 26.667 -13 62.334 -13 107.001v230
h-12c-26.667 0 -50.667 -2 -72 -6s-42.666 -11.333 -63.999 -22c-44 -23.333 -74.667 -59.333 -92 -108c-11.333 -32 -17 -72.667 -17 -122v-180h-104v36h66v144c0 46.667 3 82.667 9 108c9.33301 40.667 27.666 75.667 54.999 105c24 26.667 54 46.834 90 60.501
s79 20.5 129 20.5h50v-279c0 -32.667 3 -58.334 9 -77.001c10.667 -32.667 30.667 -57.334 60 -74.001c10.667 -6.66699 22 -11.334 34 -14.001s25 -4 39 -4c34 0 62.333 7.33301 85 22c18 11.333 32 26 42 44c5.33301 10.667 9.5 22 12.5 34s4.5 24.667 4.5 38
c0 24 -5.33301 45.5 -16 64.5s-27.167 34.5 -49.5 46.5s-48.5 18 -78.5 18c-16.667 0 -33.167 -2.33301 -49.5 -7s-33.833 -13.334 -52.5 -26.001v40c16 9.33301 33.167 16.5 51.5 21.5s34.5 7.5 48.5 7.5c24.667 0 49.167 -4.16699 73.5 -12.5
s44.166 -19.666 59.499 -33.999s27.666 -31.5 36.999 -51.5s14 -42 14 -66z" />
    <glyph glyph-name="Ydieresis" unicode="&#x178;" horiz-adv-x="500" 
d="M440 0h-171v-216h-38v216h-171v474h38v-438h304v438h38v-474z" />
    <glyph glyph-name="florin" unicode="&#x192;" horiz-adv-x="390" 
d="M405 678l-132 -138h-38l120 138h50zM340 438h-96c-30 0 -50 -1 -60 -3c-26 -5.33301 -45.833 -16 -59.5 -32s-21.5 -35.333 -23.5 -58s-3 -40.667 -3 -54v-291h-38v291c0 32.667 1.33301 56 4 70c5.33301 28 17 51.333 35 70c14.667 15.333 32.5 26.333 53.5 33
s52.167 10 93.5 10h94v-36z" />
    <glyph glyph-name="circumflex" unicode="&#x2c6;" horiz-adv-x="314" 
d="M284 534h-38l-89 116l-89 -116h-38l103 138h48z" />
    <glyph glyph-name="tilde" unicode="&#x2dc;" horiz-adv-x="233" 
d="M257 622c-2.66699 -25.333 -11.667 -46.333 -27 -63s-32.666 -25 -51.999 -25c-15.333 0 -40 9.66699 -74 29c-15.333 8.66699 -25.666 14.334 -30.999 17.001c-11.333 5.33301 -20.666 8 -27.999 8c-13.333 0 -25 -4.66699 -35 -14s-15 -22.666 -15 -39.999h-30
c2.66699 25.333 11.667 46.333 27 63s32.666 25 51.999 25c15.333 0 40 -9.66699 74 -29c15.333 -8.66699 25.666 -14.334 30.999 -17.001c11.333 -5.33301 20.666 -8 27.999 -8c13.333 0 25 4.66699 35 14s15 22.666 15 39.999h30z" />
    <glyph glyph-name="endash" unicode="&#x2013;" horiz-adv-x="644" 
d="M572 218h-500v38h500v-38z" />
    <glyph glyph-name="emdash" unicode="&#x2014;" horiz-adv-x="1144" 
d="M1072 218h-1000v38h1000v-38z" />
    <glyph glyph-name="quoteleft" unicode="&#x2018;" horiz-adv-x="222" 
d="M146 546h-36l-34 154h42z" />
    <glyph glyph-name="quoteright" unicode="&#x2019;" horiz-adv-x="222" 
d="M146 700l-34 -154h-36l28 154h42z" />
    <glyph glyph-name="quotesinglbase" unicode="&#x201a;" horiz-adv-x="222" 
d="M146 72l-34 -154h-36l28 154h42z" />
    <glyph glyph-name="quotedblleft" unicode="&#x201c;" horiz-adv-x="333" 
d="M266 546h-36l-34 154h42zM136 546h-36l-34 154h42z" />
    <glyph glyph-name="quotedblright" unicode="&#x201d;" horiz-adv-x="333" 
d="M267 700l-34 -154h-36l28 154h42zM137 700l-34 -154h-36l28 154h42z" />
    <glyph glyph-name="quotedblbase" unicode="&#x201e;" horiz-adv-x="333" 
d="M267 72l-34 -154h-36l28 154h42zM137 72l-34 -154h-36l28 154h42z" />
    <glyph glyph-name="dagger" unicode="&#x2020;" horiz-adv-x="500" 
d="M412 453l-150 14.999c0 -36.667 2.33301 -74.667 7 -114c2 -14.667 3.83301 -26.167 5.5 -34.5s2.5 -13.166 2.5 -14.499c0 -2 -0.833008 -6.33301 -2.5 -13s-2.5 -14.667 -2.5 -24l-5 -75c0 -29.333 -1.33301 -74.333 -4 -135s-4 -110 -4 -148h-18
c0 41.333 -0.666992 79 -2 113c-4 102 -6 158.667 -6 170l-5 75c0 11.333 -0.666992 19.333 -2 24s-2.33301 9 -3 13c0 4 0.833008 10.833 2.5 20.5s3.5 19.167 5.5 28.5c4.66699 39.333 7 77.333 7 114l-150 -15v54l150 -13l-15 206h54l-15 -206l150 13v-54z" />
    <glyph glyph-name="daggerdbl" unicode="&#x2021;" horiz-adv-x="500" 
d="M412 103l-150 13l15 -206h-54l15 206l-150 -13v54l150 -15c0 32.667 -1.33301 61 -4 85c-4 26 -7.66699 52 -11 78c4 26 7.5 53 10.5 81s4.5 55.333 4.5 82l-150 -15v54l150 -13l-15 206h54l-15 -206l150 13v-54l-150 15c0 -32.667 1.5 -61.5 4.5 -86.5
s6.5 -50.5 10.5 -76.5c-4 -26 -7.5 -53 -10.5 -81s-4.5 -55.333 -4.5 -82l150 15v-54z" />
    <glyph glyph-name="bullet" unicode="&#x2022;" horiz-adv-x="500" 
d="M425 350c0 -49.333 -16.833 -90.833 -50.5 -124.5s-75.167 -50.5 -124.5 -50.5s-90.833 16.833 -124.5 50.5s-50.5 75.167 -50.5 124.5s16.833 90.833 50.5 124.5s75.167 50.5 124.5 50.5s90.833 -16.833 124.5 -50.5s50.5 -75.167 50.5 -124.5z" />
    <glyph glyph-name="ellipsis" unicode="&#x2026;" horiz-adv-x="1000" 
d="M871 32c0 -10.667 -3.66699 -19.667 -11 -27s-16.333 -11 -27 -11s-19.667 3.66699 -27 11s-11 16.333 -11 27s3.66699 19.667 11 27s16.333 11 27 11s19.667 -3.66699 27 -11s11 -16.333 11 -27zM538 32c0 -10.667 -3.66699 -19.667 -11 -27s-16.333 -11 -27 -11
s-19.667 3.66699 -27 11s-11 16.333 -11 27s3.66699 19.667 11 27s16.333 11 27 11s19.667 -3.66699 27 -11s11 -16.333 11 -27zM205 32c0 -10.667 -3.66699 -19.667 -11 -27s-16.333 -11 -27 -11s-19.667 3.66699 -27 11s-11 16.333 -11 27s3.66699 19.667 11 27
s16.333 11 27 11s19.667 -3.66699 27 -11s11 -16.333 11 -27z" />
    <glyph glyph-name="perthousand" unicode="&#x2030;" horiz-adv-x="1000" 
d="M991 139c0 -41.333 -14.833 -76.5 -44.5 -105.5s-65.167 -43.5 -106.5 -43.5c-40.667 0 -76 14.667 -106 44s-45 64.333 -45 105c0 41.333 14.833 76.5 44.5 105.5s65.167 43.5 106.5 43.5c40.667 0 76 -14.667 106 -44s45 -64.333 45 -105zM308 561
c0 -41.333 -14.833 -76.5 -44.5 -105.5s-65.167 -43.5 -106.5 -43.5c-40.667 0 -76 14.667 -106 44s-45 64.333 -45 105c0 41.333 14.833 76.5 44.5 105.5s65.167 43.5 106.5 43.5c40.667 0 76 -14.667 106 -44s45 -64.333 45 -105zM556 700l-449 -700h-36l447 700h38z
M616 139c0 -41.333 -14.833 -76.5 -44.5 -105.5s-65.167 -43.5 -106.5 -43.5c-40.667 0 -76 14.667 -106 44s-45 64.333 -45 105c0 41.333 14.833 76.5 44.5 105.5s65.167 43.5 106.5 43.5c40.667 0 76 -14.667 106 -44s45 -64.333 45 -105zM951 139c0 30 -10.667 56 -32 78
s-47.666 33 -78.999 33s-57.666 -11 -78.999 -33s-32 -48 -32 -78s10.667 -56 32 -78s47.666 -33 78.999 -33s57.666 11 78.999 33s32 48 32 78zM268 561c0 30 -10.667 56 -32 78s-47.666 33 -78.999 33s-57.666 -11 -78.999 -33s-32 -48 -32 -78s10.667 -56 32 -78
s47.666 -33 78.999 -33s57.666 11 78.999 33s32 48 32 78zM576 139c0 30 -10.667 56 -32 78s-47.666 33 -78.999 33s-57.666 -11 -78.999 -33s-32 -48 -32 -78s10.667 -56 32 -78s47.666 -33 78.999 -33s57.666 11 78.999 33s32 48 32 78z" />
    <glyph glyph-name="guilsinglleft" unicode="&#x2039;" horiz-adv-x="278" 
d="M218 82h-47l-120 155l120 155h47l-120 -155z" />
    <glyph glyph-name="guilsinglright" unicode="&#x203a;" horiz-adv-x="278" 
d="M227 237l-120 -155h-47l120 155l-120 155h47z" />
    <glyph glyph-name="trademark" unicode="&#x2122;" horiz-adv-x="908" 
d="M900 288h-41.002l-73 365l-3 16l-3 -3l-99 -323c-7.33301 -25.333 -12 -40 -14 -44c-6.66699 -14 -16.334 -21 -29.001 -21c-11.333 0 -21 7.66699 -29 23c-2.66699 5.33301 -7.66699 19.333 -15 42l-98 323l-2 5l-5 -24l-72 -359h-41l81 373
c4.66699 20 8.33398 32.667 11.001 38c5.33301 9.33301 13.666 14 24.999 14c9.33301 0 16.333 -2.66699 21 -8s9.33398 -15.333 14.001 -30l84 -271l18 -64c1.33301 -4.66699 2.5 -8.33398 3.5 -11.001s2.5 -5.66699 4.5 -9c1.33301 2.66699 2.83301 5.83398 4.5 9.50098
s2.83398 7.16699 3.50098 10.5l18 64l84 271c4.66699 14.667 9.33398 24.667 14.001 30s11.667 8 21 8c10 0 17 -2.66699 21 -8s9 -20 15 -44zM404.998 664h-141v-376h-38v376h-141v36h320v-36z" />
    <glyph glyph-name="periodcentered" unicode="&#x2219;" horiz-adv-x="238" 
d="M156 237c0 -10.667 -3.5 -19.5 -10.5 -26.5s-15.833 -10.5 -26.5 -10.5s-19.5 3.5 -26.5 10.5s-10.5 15.833 -10.5 26.5s3.5 19.5 10.5 26.5s15.833 10.5 26.5 10.5s19.5 -3.5 26.5 -10.5s10.5 -15.833 10.5 -26.5z" />
    <glyph glyph-name=".null" horiz-adv-x="0" 
 />
    <glyph glyph-name="nonmarkingreturn" horiz-adv-x="233" 
 />
    </font>
</defs>
</svg>
